<svg id="Layer_1" enable-background="new 0 0 75 75" viewBox="0 0 75 75" xmlns="http://www.w3.org/2000/svg"><g id="_x33_D_Modelling"><path d="m61.6821289 18.9223061c.3925781-.1308594.6054688-.5556641.4746094-.9487305-.1318359-.3920898-.5527344-.6083984-.9492188-.4741211-2.7415886.9122105-5.8336258-.3562508-7.0849609-3.1357422-.1708984-.378418-.6162109-.5454102-.9912109-.3764648-.3779297.1699219-.5458984.6137695-.3759766.9916992 1.5688972 3.4904346 5.4657631 5.0970249 8.9267578 3.9433594z"/><path d="m65.8598633 13.68256c.3671875 0 .6884766-.2700195.7412109-.6445313.4550781-3.1943359-1.2949219-6.3457036-4.2548828-7.664063-2.9580078-1.315918-6.4707031-.4936523-8.5380859 2.0083008-.2636719.3193359-.21875.7919927.1005859 1.0556645.3183594.2641602.7910156.2202148 1.0556641-.1005859 1.6386719-1.9838872 4.4228516-2.6391606 6.7724609-1.5932622 2.3505859 1.046875 3.7402344 3.5483403 3.3798828 6.0830083-.0641861.4487801.283432.8554688.7431641.8554688z"/><path d="m69.6391602 15.7235756c.3623047-.8173828.0048828-1.7919922-1.0615234-2.8969727-.2880859-.2973633-.7626953-.3056641-1.0605469-.0185547-.2988281.2875977-.3066406.762207-.0195313 1.0605469.7460938.7719727.796875 1.1870117.7705078 1.2480469-.0224609.0507813-.3037109.2578125-1.1777344.2705078-4.2983818 0-12.6286125-3.7628517-15.34375-6.7929688-.5803223-.658936-.6160889-1.0062261-.59375-1.0571294.0273438-.0605469.3673096-.3027344 1.4433594-.2695313.4150391.0253906.7597656-.3125.7724609-.7265625s-.3134766-.7597656-.7275391-.7724609c-1.0831909-.0353003-2.3538322.1656909-2.8391113 1.131958-.0050049.0106201-.0155029.017334-.0202637.0281982-.0040855.1333694-.626873.9921536.84375 2.6611333 3.8976785 4.3607675 17.4552461 9.6573812 19.013672 6.1337892z"/><path d="m13.9960938 22.9437904c2.6597519.8881016 5.6608143-.349968 6.8657227-3.0322266.1689453-.3774414.0009766-.8212891-.3769531-.9912109-.375-.1689453-.8222656-.0019531-.9921875.3769531-.8884277 1.9808407-3.0943317 2.8674908-5.0219727 2.2236328-.3935547-.1337891-.8183594.0810547-.9487305.4741211-.1308594.3930665.0810546.8178712.4741211.9487305z"/><path d="m11.6713867 17.3124428c.1196289-1.4951172 1.0483398-2.8041992 2.4243164-3.4169922 1.3037109-.5800781 2.840332-.4262695 4.0102539.3984375.3398438.2382813.8066406.1582031 1.0458984-.1806641.2382813-.3383789.1572266-.8061523-.1806641-1.0449219-1.6005859-1.1289063-3.703125-1.3369141-5.4858398-.5429688-1.8779297.8359375-3.1459961 2.625-3.309082 4.6679688-.0332031.4125977.2749023.7744141.6879883.8071289.426322.0311947.7750588-.2851123.8071289-.6879882z"/><path d="m9.8598633 18.081974c-.2978516-.2871094-.7719727-.2783203-1.0605469.0185547-.8525391.8828125-1.1303711 1.6782227-.8261719 2.3642578.9652996 2.1757011 6.4923553.1827087 8.6796875-.7871094 2.1611595-.9570313 7.3559971-3.7001963 6.4197998-5.883667-.0023193-.0054932-.0013428-.0113525-.0037842-.0167236-.3603687-.8095961-1.4188404-1.0036421-2.3056641-.9755859-.4140625.0126953-.7392578.3583984-.7265625.7724609.0126953.4135742.3466797.7299805.7734375.7265625.2728214-.0080242.6015854.002821.8607178.0844727-.1636009.5268517-1.1760578 1.3367414-1.6263428 1.6665039-2.3294029 1.7431507-6.984025 3.8205185-9.9960938 3.8911133-.3666992-.0053711-.5766602-.059082-.6743164-.0996094.0366211-.1040039.1503906-.3339844.5043945-.7006836.2875978-.2978516.279297-.7724609-.0185545-1.0605469z"/><path d="m47.3696289 35.1762123v-11.6347656c0-.3208122-.2641258-.702282-.4609375-.8237305l-8.9804688-5.527832-.0029297.003418c-.2866135-.1643829-.6142883-.1415062-.8623047.0004883l-.0029297-.0039063-8.9228516 5.4956055c-.3169079.1583462-.5185547.6125126-.5185547.855957v11.6347656c0 .2602539.1689453.5605469.390625.6967773l9.0341797 5.5566406c.2312737.1185265.5903053.1305122.8378906-.0200195l9.0390625-5.5102539c.248047-.1293945.4492189-.4438476.4492189-.7231445zm-9.1318359 4.2589111v-3.541626c0-.4140625-.3359375-.75-.75-.75s-.75.3359375-.75.75v3.5898438l-7.6191406-4.6860352v-10.043457c.9936199.6099091 2.9125481 1.7789001 2.805542 1.7172852.8764915.5046921 1.5465012-.8057156.7647705-1.2856445l-2.8824463-1.7697754 7.6881104-4.7316895 7.689209 4.7297363-2.885498 1.7717285c-.3525391.2167969-.4628906.6787109-.2460938 1.0317383.1933632.3160114.6820488.4616413 1.03125.246582l2.7861328-1.7106934v10.0319825z"/><path d="m32.5620117 31.831974-1.1474609.71875c-.3505859.2202148-.4570313.6826172-.2373047 1.0336914.2177582.3475189.6781597.4592552 1.0341797.237793l1.1474609-.71875c.3505859-.2202148.4570313-.6826172.2373047-1.0336914s-.6816406-.4575195-1.0341797-.237793z"/><path d="m35.8657227 29.7631264-1.0566406.6621094c-.6340332.3982563-.3553886 1.3857422.3994141 1.3857422.3535538 0 .4630966-.1927776 1.4541016-.7763672.3505859-.2202148.4570313-.6831055.2373047-1.0341797-.2197267-.350586-.6816408-.4570313-1.0341798-.2373047z"/><path d="m38.237793 27.4769936v-1.0395508c0-.4140625-.3359375-.75-.75-.75s-.75.3359375-.75.75v1.0395508c0 .4140625.3359375.75.75.75s.75-.3359375.75-.75z"/><path d="m37.487793 24.02631c.4140625 0 .75-.3359375.75-.75v-1.0395508c0-.4140625-.3359375-.75-.75-.75s-.75.3359375-.75.75v1.0395508c0 .4140625.3359375.75.75.75z"/><path d="m43.5737305 32.550724-1.1474609-.71875c-.3525391-.2197266-.8134766-.1132813-1.0341797.237793-.2197266.3510742-.1132813.8134766.2373047 1.0336914 1.0381622.6136856 1.1814384.8330078 1.5449219.8330078.7529449 0 1.0345878-.9867668.399414-1.3857422z"/><path d="m40.1791992 30.4252357-1.0576172-.6621094c-.3525391-.2211914-.8144531-.1132813-1.0341797.237793s-.1132813.8139648.2373047 1.0336914c.96175.5659447 1.0901527.7763672 1.4550781.7763672.7526589 0 1.0348549-.9874858.3994141-1.3857422z"/><path d="m11.1552734 58.5433998h52.6899414c3.5107422 0 6.3662109-2.8554688 6.3662109-6.3662109v-32.6049805c0-.4140625-.3359375-.75-.75-.75s-.75.3359375-.75.75v29.3803711h-26.2695312c-.4140625 0-.75.3359375-.75.75s.3359375.75.75.75h26.2695313v1.7246094c0 2.6835938-2.1826172 4.8662109-4.8662109 4.8662109h-52.6899415c-2.6835938 0-4.8666992-2.1826172-4.8666992-4.8662109v-1.7246094h26.2705078c.4140625 0 .75-.3359375.75-.75s-.3359375-.75-.75-.75h-26.2705078v-33.8603516c0-2.6831055 2.1831055-4.8662109 4.8666992-4.8662109h36.5532227c.4140625 0 .75-.3359375.75-.75s-.3359375-.75-.75-.75h-36.5532227c-3.5107422 0-6.3666992 2.855957-6.3666992 6.3662109v37.0849609c0 3.5107423 2.8559571 6.366211 6.3666992 6.366211z"/><path d="m44.8530273 67.0316772c.4140625 0 .75-.3359375.75-.75v-3.0869102c0-1.5722656-1.2783203-2.8505859-2.8505859-2.8505859h-10.5039062c-1.5722656 0-2.8505859 1.2783203-2.8505859 2.8505859v3.0869102c0 .4140625.3359375.75.75.75s.75-.3359375.75-.75v-3.0869102c0-.7451172.6054688-1.3505859 1.3505859-1.3505859h10.5039063c.7451172 0 1.3505859.6054688 1.3505859 1.3505859v3.0869102c-.0000001.4140625.3359374.75.7499999.75z"/><path d="m25.496582 69.4974976c0 .4140625.3359375.75.75.75h22.5078125c.4140625 0 .75-.3359375.75-.75s-.3359375-.75-.75-.75h-22.5078125c-.4140625 0-.75.3359375-.75.75z"/><path d="m35.9731445 46.5892982c-.5332031 0-.9667969.4335938-.9667969.9667969v4.2939453c0 .5322266.4335938.9658203.9667969.9658203h3.0546875c.5322266 0 .9658203-.4335938.9658203-.9658203v-4.2939453c0-.5332031-.4335938-.9667969-.9658203-.9667969zm2.5205078 4.7265625h-1.9873047v-3.2265625h1.9873047z"/><path d="m50.6762695 33.2411537c-.3818359.1611328-.5605469.6015625-.3984375.9829102.1639442.3873825.6093025.5575829.9824219.3979492 6.5839767-2.7862606 6.4077797-6.9294567 2.1590576-9.5949707l1.7296143-.3361816c.40625-.0791016.671875-.4726563.5927734-.8793945-.0791016-.4072266-.4736328-.6728516-.8798828-.5932617l-3.4863281.6777344c-.40625.0791016-.671875.4726563-.5927734.8793945l.6777344 3.4868164c.077549.4008522.465313.6720295.8798828.5932617.40625-.0791016.671875-.4726563.5927734-.8793945l-.3297119-1.6948242c4.0481147 2.5248927 2.4000816 5.127777-1.9271241 6.9599608z"/><path d="m20.9311523 36.0517006c.1489449.3889122.5843334.5789986.96875.4316406l3.3164063-1.2729492c.3912697-.1503296.5784855-.5860329.4316406-.9692383l-1.2734375-3.315918c-.1484375-.3867188-.5839844-.5771484-.96875-.4311523-.3867188.1484375-.5800781.5825195-.4316406.9692383l.5925293 1.5422363c-2.37854-1.1044922-3.7429199-2.447998-3.7429199-3.7351074 0-1.2646484 1.2763672-2.5688477 3.5947266-3.6733398.3740234-.1782227.5332031-.6259766.3544922-1-.1767578-.3730469-.6259766-.5322266-.9990234-.3544922-2.9111328 1.387207-4.4501953 3.1254883-4.4501953 5.027832 0 1.9787598 1.6506348 3.7529297 4.7496338 5.1560059l-1.7105713.6564941c-.3867189.1484375-.5800783.5820312-.4316408.96875z"/></g></svg>