<svg id="Capa_1" enable-background="new 0 0 512 512" height="512" viewBox="0 0 512 512" width="512" xmlns="http://www.w3.org/2000/svg"><g><path d="m90 350h23c5.523 0 10-4.478 10-10s-4.477-10-10-10h-23c-5.523 0-10 4.478-10 10s4.477 10 10 10z"/><path d="m160.944 128.026c-1.564-4.803-5.917-8.026-10.835-8.026-.003 0-.007 0-.01 0-4.923.005-9.276 3.238-10.833 8.048-.021.063-23.84 79.065-23.84 79.065-1.594 5.288 1.4 10.867 6.688 12.461.963.29 1.934.429 2.891.429 4.296 0 8.267-2.791 9.57-7.116l3.778-12.53h23.33l3.736 12.506c1.581 5.292 7.15 8.301 12.444 6.72 5.292-1.581 8.3-7.152 6.719-12.444 0-.001-23.612-79.035-23.638-79.113zm-16.562 52.33 5.689-18.868 5.637 18.868z"/><path d="m215 165c-5.51 0-10 4.49-10 10v35c0 5.52 4.49 10 10 10s10-4.48 10-10v-35c0-5.51-4.49-10-10-10z"/><circle cx="215" cy="130" r="10"/><path d="m149.528 358.944c4.746 2.373 10.936.49 13.417-4.473l10-20c2.47-4.939.468-10.946-4.472-13.416-4.939-2.471-10.947-.469-13.417 4.473l-10 20c-2.47 4.94-.468 10.947 4.472 13.416z"/><path d="m195.528 358.944c4.733 2.366 10.953.456 13.417-4.473l10-20c2.47-4.939.468-10.946-4.472-13.416-4.939-2.471-10.947-.469-13.417 4.473l-10 20c-2.47 4.94-.468 10.947 4.472 13.416z"/><path d="m509.07 242.93c-1.86-1.86-4.44-2.93-7.07-2.93h-62v-50c0-27.57-22.43-50-50-50h-50v-130c0-5.522-4.477-10-10-10h-320c-5.523 0-10 4.478-10 10v492c0 5.522 4.477 10 10 10h60c5.523 0 10-4.478 10-10v-35h160v35c0 2.63 1.07 5.21 2.93 7.069 1.86 1.86 4.44 2.931 7.07 2.931h81c5.51 0 10-4.49 10-10s-4.49-10-10-10h-71v-232h232v232h-71c-5.51 0-10 4.49-10 10 0 5.52 4.49 10 10 10h81c2.63 0 5.21-1.07 7.07-2.931 1.86-1.859 2.93-4.439 2.93-7.069v-252c0-2.63-1.07-5.21-2.93-7.07zm-129.07-2.93h-40v-40h40zm-310 207c-5.523 0-10 4.478-10 10v35h-40v-472h300v220h-20v-190c0-5.522-4.477-10-10-10h-240c-5.523 0-10 4.478-10 10v340c0 5.522 4.477 10 10 10h190v47zm170-67h-180v-80h180zm40-300h-220v-20h220zm-40 200h-180v-20h180zm10-40h-190v-140h220v140zm150 0v-50c0-5.522-4.477-10-10-10h-50v-20h50c16.542 0 30 13.458 30 30v50z"/><circle cx="376" cy="502" r="10"/><path d="m341.007 315.366c4.781-2.766 6.415-8.883 3.649-13.663s-8.882-6.415-13.663-3.649c-27.753 16.052-44.993 45.92-44.993 77.946 0 49.626 40.374 90 90 90s90-40.374 90-90c0-32.026-17.24-61.894-44.993-77.946-4.78-2.766-10.897-1.132-13.663 3.649-2.765 4.78-1.131 10.897 3.649 13.663 21.593 12.49 35.007 35.724 35.007 60.634 0 38.599-31.402 70-70 70s-70-31.401-70-70c0-24.91 13.414-48.144 35.007-60.634z"/><path d="m386 336v-46c0-5.522-4.477-10-10-10s-10 4.478-10 10v46c0 5.522 4.477 10 10 10s10-4.478 10-10z"/></g></svg>