<?xml version="1.0" encoding="UTF-8"?>
<svg xmlns="http://www.w3.org/2000/svg" xmlns:xlink="http://www.w3.org/1999/xlink" version="1.1" id="eye-perspective" x="0px" y="0px" viewBox="0 0 300 300" style="enable-background:new 0 0 300 300;" xml:space="preserve" width="512" height="512">
<g>
	<path d="M52.916,68.484c0.781,0.781,1.805,1.172,2.828,1.172s2.047-0.391,2.828-1.172l2.828-2.828l2.828,2.828   c0.781,0.781,1.805,1.172,2.828,1.172s2.047-0.391,2.828-1.172c1.562-1.562,1.562-4.094,0-5.656L67.057,60l2.828-2.828   c1.562-1.562,1.562-4.094,0-5.656s-4.094-1.562-5.656,0L61.4,54.344l-2.828-2.828c-1.562-1.562-4.094-1.562-5.656,0   s-1.562,4.094,0,5.656L55.744,60l-2.828,2.828C51.354,64.391,51.354,66.922,52.916,68.484z"/>
	<path d="M147.457,116.504l-36,20c-1.27,0.705-2.057,2.043-2.057,3.496v44c0,1.453,0.787,2.791,2.057,3.496l36,20   c0.605,0.336,1.273,0.504,1.943,0.504s1.338-0.168,1.943-0.504l36-20c1.27-0.705,2.057-2.043,2.057-3.496v-44   c0-1.453-0.787-2.791-2.057-3.496l-36-20C150.133,115.832,148.668,115.832,147.457,116.504z M149.4,124.576L177.164,140   L149.4,155.424L121.637,140L149.4,124.576z M117.4,146.798l28,15.556v34.848l-28-15.555V146.798z M153.4,197.202v-34.848l28-15.556   v34.849L153.4,197.202z"/>
	<path d="M239.4,205.47c-2.501,0-4.53,2.028-4.53,4.53c0,2.501,2.028,4.529,4.53,4.529s4.53-2.028,4.53-4.529   C243.93,207.498,241.902,205.47,239.4,205.47z"/>
	<path d="M255.4,69.47c-2.501,0-4.53,2.028-4.53,4.53c0,2.501,2.028,4.529,4.53,4.529c2.501,0,4.53-2.028,4.53-4.529   C259.93,71.498,257.902,69.47,255.4,69.47z"/>
	<path d="M197.309,82.842c0.76-0.752,1.186-1.773,1.186-2.842s-0.426-2.09-1.186-2.842C196.438,76.295,175.649,56,149.4,56   s-47.037,20.295-47.908,21.158c-0.76,0.752-1.186,1.773-1.186,2.842s0.426,2.09,1.186,2.842C102.363,83.705,123.152,104,149.4,104   S196.438,83.705,197.309,82.842z M133.4,80c0-8.822,7.178-16,16-16s16,7.178,16,16s-7.178,16-16,16S133.4,88.822,133.4,80z    M170.671,91.075c1.734-3.317,2.729-7.079,2.729-11.075s-0.995-7.758-2.729-11.075c7.88,3.524,14.188,8.144,17.764,11.075   C184.859,82.931,178.552,87.55,170.671,91.075z M128.13,68.925C126.396,72.242,125.4,76.005,125.4,80s0.995,7.758,2.729,11.075   c-7.88-3.524-14.188-8.144-17.764-11.075C113.942,77.069,120.249,72.45,128.13,68.925z"/>
	<path d="M213.4,126.622V56.207c0-8.938-7.27-16.207-16.207-16.207h-95.586C92.67,40,85.4,47.27,85.4,56.207v68.891l-44.344,50.8   c-1.453,1.664-1.281,4.191,0.383,5.645c0.758,0.662,1.695,0.986,2.629,0.986c1.115,0,2.225-0.463,3.016-1.369L85.4,137.265v106.721   c0,5.408,2.939,10.404,7.688,13.088c2.855,1.914,6.174,2.926,9.611,2.926h93.402c3.438,0,6.756-1.012,9.611-2.926   c4.748-2.684,7.688-7.68,7.688-13.088V138.789l36.986,42.371c0.791,0.906,1.9,1.369,3.016,1.369c0.934,0,1.871-0.324,2.629-0.986   c1.664-1.453,1.836-3.98,0.383-5.645L213.4,126.622z M201.69,250.158c-0.117,0.064-0.23,0.135-0.34,0.211   c-1.555,1.066-3.369,1.631-5.248,1.631h-93.402c-1.879,0-3.693-0.564-5.248-1.631c-0.109-0.076-0.223-0.146-0.34-0.211   c-2.289-1.254-3.711-3.619-3.711-6.172V228h112v15.986C205.4,246.539,203.979,248.904,201.69,250.158z M205.4,220h-112v-91.9   l19.014-21.782c1.453-1.664,1.281-4.191-0.383-5.645c-1.662-1.451-4.189-1.277-5.645,0.383L93.4,115.934V56.207   c0-4.525,3.682-8.207,8.207-8.207h95.586c4.525,0,8.207,3.682,8.207,8.207v61.25l-14.316-16.401   c-1.451-1.66-3.979-1.834-5.645-0.383c-1.664,1.453-1.836,3.98-0.383,5.645l20.344,23.306V220z"/>
	<path d="M157.4,236h-16c-2.209,0-4,1.791-4,4s1.791,4,4,4h16c2.209,0,4-1.791,4-4S159.609,236,157.4,236z"/>
</g>















</svg>
