<svg id="Layer_1" enable-background="new 0 0 66 66" viewBox="0 0 66 66" xmlns="http://www.w3.org/2000/svg"><g><g><path d="m25.9 52.9h-19.9c-2.8 0-5-2.2-5-5v-37.9c0-.6.4-1 1-1h49.6c.6 0 1 .4 1 1v16.7c0 .6-.4 1-1 1s-1-.4-1-1v-15.7h-47.6v36.9c0 1.7 1.3 3 3 3h19.9c.6 0 1 .4 1 1s-.4 1-1 1z"/></g><g><path d="m51.6 11c-.6 0-1-.4-1-1v-3.5c0-1.9-1.6-3.5-3.5-3.5h-40.6c-1.9 0-3.5 1.6-3.5 3.5v3.5c0 .6-.4 1-1 1s-1-.4-1-1v-3.5c0-3 2.4-5.5 5.5-5.5h40.6c3 0 5.5 2.5 5.5 5.5v3.5c0 .5-.4 1-1 1z"/></g><g><path d="m61 65h-31.2c-2.2 0-4-1.8-4-4v-27.4c0-.6.4-1 1-1h37.2c.6 0 1 .4 1 1v27.4c0 2.2-1.8 4-4 4zm-33.2-30.4v26.4c0 1.1.9 2 2 2h31.2c1.1 0 2-.9 2-2v-26.4z"/></g><g><path d="m64 34.6c-.6 0-1-.4-1-1v-3.6c0-1.3-1.1-2.4-2.4-2.4h-30.5c-1.3 0-2.3 1.1-2.3 2.3v3.6c0 .6-.4 1-1 1s-1-.4-1-1v-3.5c0-2.4 1.9-4.3 4.3-4.3h30.5c2.4 0 4.4 2 4.4 4.4v3.6c0 .4-.4.9-1 .9z"/></g><g><g><path d="m10 7h-2.3c-.6 0-1-.4-1-1s.4-1 1-1h2.3c.6 0 1 .4 1 1s-.4 1-1 1z"/></g><g><path d="m16.6 7h-2.3c-.6 0-1-.4-1-1s.4-1 1-1h2.3c.6 0 1 .4 1 1s-.4 1-1 1z"/></g><g><path d="m23.2 7h-2.3c-.6 0-1-.4-1-1s.4-1 1-1h2.3c.6 0 1 .4 1 1s-.4 1-1 1z"/></g></g><g><g><path d="m34.6 31.1h-2.3c-.6 0-1-.4-1-1s.4-1 1-1h2.3c.6 0 1 .4 1 1s-.5 1-1 1z"/></g><g><path d="m41.2 31.1h-2.3c-.6 0-1-.4-1-1s.4-1 1-1h2.3c.6 0 1 .4 1 1s-.5 1-1 1z"/></g><g><path d="m47.8 31.1h-2.3c-.6 0-1-.4-1-1s.4-1 1-1h2.3c.6 0 1 .4 1 1s-.5 1-1 1z"/></g></g><g><g><path d="m36.3 56.6h-1.9c-1.5 0-2.7-1.2-2.7-2.7v-3.1c0-1.5 1.2-2.7 2.7-2.7h1.9c.6 0 1 .4 1 1s-.4 1-1 1h-1.9c-.4 0-.7.3-.7.7v3.1c0 .4.3.7.7.7h1.9c.6 0 1 .4 1 1s-.5 1-1 1z"/></g><g><path d="m56.4 56.6h-1.9c-.6 0-1-.4-1-1s.4-1 1-1h1.9c.4 0 .7-.3.7-.7v-3.1c0-.4-.3-.7-.7-.7h-1.9c-.6 0-1-.4-1-1s.4-1 1-1h1.9c1.5 0 2.7 1.2 2.7 2.7v3.1c.1 1.5-1.2 2.7-2.7 2.7z"/></g><g><path d="m51.8 60.8h-12.8c-2.1 0-3.7-1.7-3.7-3.7v-6.1c0-4.3 3.5-7.8 7.8-7.8h4.7c4.3 0 7.8 3.5 7.8 7.8v6.1c-.1 2.1-1.8 3.7-3.8 3.7zm-8.7-15.6c-3.2 0-5.8 2.6-5.8 5.8v6.1c0 1 .8 1.7 1.7 1.7h12.7c1 0 1.7-.8 1.7-1.7v-6.1c0-3.2-2.6-5.8-5.8-5.8z"/></g><g><path d="m41.4 53.5c-1.6 0-2.8-1.3-2.8-2.8s1.3-2.8 2.8-2.8c1.6 0 2.9 1.3 2.9 2.8s-1.3 2.8-2.9 2.8zm0-3.7c-.5 0-.8.4-.8.8s.4.8.8.8c.5 0 .9-.4.9-.8s-.4-.8-.9-.8z"/></g><g><path d="m49.4 53.5c-1.6 0-2.9-1.3-2.9-2.8s1.3-2.8 2.9-2.8 2.8 1.3 2.8 2.8-1.2 2.8-2.8 2.8zm0-3.7c-.5 0-.9.4-.9.8s.4.8.9.8.8-.4.8-.8-.3-.8-.8-.8z"/></g><g><path d="m47.8 57.4h-4.8c-1.3 0-2.3-1-2.3-2.3 0-.6.4-1 1-1s1 .4 1 1c0 .2.1.3.3.3h4.7c.2 0 .3-.1.3-.3 0-.6.4-1 1-1s1 .4 1 1c.1 1.3-1 2.3-2.2 2.3z"/></g><g><path d="m45.4 44.9c-.6 0-1-.4-1-1v-2.8c0-.6.4-1 1-1s1 .4 1 1v2.8c0 .6-.4 1-1 1z"/></g><g><path d="m45.4 42.1c-1.6 0-3-1.3-3-3s1.3-3 3-3 3 1.3 3 3-1.4 3-3 3zm0-3.9c-.5 0-1 .4-1 1s.4 1 1 1 1-.4 1-1-.5-1-1-1z"/></g></g><g><path d="m32.6 53.3h-1.6c-.6 0-1-.4-1-1s.4-1 1-1h1.6c.6 0 1 .4 1 1s-.4 1-1 1z"/></g><g><path d="m59.7 53.3h-1.6c-.6 0-1-.4-1-1s.4-1 1-1h1.6c.6 0 1 .4 1 1s-.4 1-1 1z"/></g><g><g><g><path d="m39.7 39.3h-8.7c-.6 0-1-.4-1-1s.4-1 1-1h8.7c.6 0 1 .4 1 1s-.4 1-1 1z"/></g><g><path d="m36 43.4h-5c-.6 0-1-.4-1-1s.4-1 1-1h5c.6 0 1 .4 1 1s-.4 1-1 1z"/></g></g><g><g><path d="m59.8 39.3h-8.7c-.6 0-1-.4-1-1s.4-1 1-1h8.7c.6 0 1 .4 1 1s-.5 1-1 1z"/></g><g><path d="m59.8 43.4h-5c-.6 0-1-.4-1-1s.4-1 1-1h5c.6 0 1 .4 1 1s-.5 1-1 1z"/></g></g></g><g><g><g><g><path d="m12.3 27.4c-.3 0-.5-.1-.7-.3l-5.2-5.2c-.4-.4-.4-1 0-1.4l5.2-5.2c.4-.4 1-.4 1.4 0s.4 1 0 1.4l-4.5 4.5 4.5 4.5c.4.4.4 1 0 1.4-.2.2-.4.3-.7.3z"/></g><g><path d="m20.5 27.4c-.3 0-.5-.1-.7-.3-.4-.4-.4-1 0-1.4l4.5-4.5-4.5-4.5c-.4-.4-.4-1 0-1.4s1-.4 1.4 0l5.2 5.2c.2.2.3.4.3.7s-.1.5-.3.7l-5.2 5.2c-.2.2-.4.3-.7.3z"/></g></g><g><path d="m15.2 28.7c-.1 0-.1 0-.2 0-.5-.1-.9-.6-.8-1.2l2.5-13.1c.1-.5.6-.9 1.2-.8.5.1.9.6.8 1.2l-2.5 13.1c-.2.5-.6.8-1 .8z"/></g></g><g><g><path d="m46.5 17.3h-10.1c-.6 0-1-.4-1-1s.4-1 1-1h10.1c.6 0 1 .4 1 1s-.5 1-1 1z"/></g><g><path d="m32.4 17.3h-2.3c-.6 0-1-.4-1-1s.4-1 1-1h2.3c.6 0 1 .4 1 1s-.4 1-1 1z"/></g></g><g><g><path d="m46.5 22.2h-10.1c-.6 0-1-.4-1-1s.4-1 1-1h10.1c.6 0 1 .4 1 1s-.5 1-1 1z"/></g><g><path d="m32.4 22.2h-2.3c-.6 0-1-.4-1-1s.4-1 1-1h2.3c.6 0 1 .4 1 1s-.4 1-1 1z"/></g></g><g><g><g><path d="m22.5 33.3h-9.1c-.6 0-1-.4-1-1s.4-1 1-1h9.1c.6 0 1 .4 1 1s-.5 1-1 1z"/></g><g><path d="m9.4 33.3h-2.3c-.6 0-1-.4-1-1s.4-1 1-1h2.3c.6 0 1 .4 1 1s-.4 1-1 1z"/></g></g><g><g><path d="m22.5 38.3h-9.1c-.6 0-1-.4-1-1s.4-1 1-1h9.1c.6 0 1 .4 1 1s-.5 1-1 1z"/></g><g><path d="m9.4 38.3h-2.3c-.6 0-1-.4-1-1s.4-1 1-1h2.3c.6 0 1 .4 1 1s-.4 1-1 1z"/></g></g><g><g><path d="m22.5 43.2h-9.1c-.6 0-1-.4-1-1s.4-1 1-1h9.1c.6 0 1 .4 1 1s-.5 1-1 1z"/></g><g><path d="m9.4 43.2h-2.3c-.6 0-1-.4-1-1s.4-1 1-1h2.3c.6 0 1 .4 1 1s-.4 1-1 1z"/></g></g><g><g><path d="m22.5 48.2h-9.1c-.6 0-1-.4-1-1s.4-1 1-1h9.1c.6 0 1 .4 1 1s-.5 1-1 1z"/></g><g><path d="m9.4 48.2h-2.3c-.6 0-1-.4-1-1s.4-1 1-1h2.3c.6 0 1 .4 1 1s-.4 1-1 1z"/></g></g></g></g></g></svg>