<svg id="DASHLINE" enable-background="new 0 0 64 64" viewBox="0 0 64 64" xmlns="http://www.w3.org/2000/svg"><g><path d="m33.5682144 45.8374023c-.9139481-2.0750999-3.5633202-3.0411835-5.5981598-2.0448761.0000153-.0000458-4.597641 2.136673-4.597641 2.136673-5.0066147-5.689846-8.7790937-13.7526779-9.9267578-21.2861328 0 0 4.5878906-2.1376953 4.5878906-2.1376953 2.1069336-.9814453 3.0244141-3.5009766 2.043457-5.6201172l-3.0395508-6.4990234c-.9790039-2.1005859-3.4892578-3.0136719-5.5981445-2.0341797 0 0-2.4301758 1.1308594-2.4301758 1.1308594-3.9721675 1.8505859-6.4301753 6.2207031-6.920898 12.3037109-1.6928947 14.963974 12.0373207 38.2558632 25.8391835 38.2038994 2.3095741.1304283 4.6291656-1.0804405 6.6403046-2.0467453 2.0677376-.9389534 3.0279694-3.5349159 2.0395241-5.6083374.0000304.0000114-3.0390321-6.4980355-3.0390321-6.4980355zm1.4106445 8.5410157c-.0942383.7714844-.5664062 1.4277344-1.262207 1.7558594l-2.4277344 1.1386719c-6.9907227 3.2519531-17.4819336-4.4033203-23.3911133-17.0761719-4.2104744-8.8185864-6.8976422-24.1206437 1.9553919-28.9005147.0001745.000124 2.4303503-1.1307354 2.4303503-1.1307354 1.0805216-.509656 2.4257908-.0491858 2.9414053 1.066412.000001-.0000057 3.0385752 6.4970646 3.0385752 6.4970646.5175781 1.1171875.0351562 2.4462891-1.074707 2.9638672l-5.2597656 2.4501953c-.3955078.1845703-.6259766.6035156-.5688477 1.0371094.4404297 3.3457031 1.3598633 6.7783203 2.734375 10.2041016 1.9675503 4.9382629 4.8768044 9.7205238 8.2885838 13.4394493.2934475.3212929.7626858.4140663 1.1596584.2324257 0 0 5.2709961-2.4501953 5.2709961-2.4501953 1.069397-.5269203 2.4610081-.013855 2.941885 1.0771675.0000095-.0000191 3.0356541 6.4902153 3.0356541 6.4902153.1782227.3916016.2436523.8017578.1899414 1.1875-.0009766.0058593-.0019532.0117187-.0024415.0175781z"/><path d="m36.2513199 4.0092773c-5.9873047 0-11.8110352 2.0957031-16.3979492 5.9003906-.9968758.8493195.261734 2.3663645 1.2764187 1.539032 15.2869014-12.754859 38.9470386-1.6270828 38.871397 18.3108483.0001335 11.6501198-8.6663704 21.7409401-20.1585579 23.4704323-1.2062912.1816292-1.0671349 1.9879456.1475067 1.9892426 31.2822037-5.5879098 28.121254-50.2140623-3.7388153-51.2099458z"/><path d="m19.3611832 33.0092773c-1.3084106.0203934-1.3193493 1.9774017.0000477 1.9999962-.0000477.0000038 6.640089.0000038 6.640089.0000038 1.7884216.0001335 22.9592896-.0000954 24 0v2h-28.6000977c-.5522461 0-1 .4472656-1 1s.4477539 1 1 1h29.6000977c.5522461 0 1-.4472656 1-1v-4c0-.5527344-.4477539-1-1-1h-3v-13.1708984c3.130291-1.1624851 2.3541794-5.7927418-1.0000763-5.8290958-1.9664154-.0282192-3.4425926 1.9530869-2.8856659 3.8300724l-2.3950195 1.7158203c-1.304039-.9435043-3.2404671-.5957336-4.1601562.7158203l-1.5644531-.4453125c-.094944-1.5362148-1.4457245-2.8336926-2.9946594-2.8163815-2.1682339-.0437279-3.6612225 2.3636665-2.7079773 4.2939205l-2.9980469 2.9980469c-3.8522129-1.6284599-6.15345 3.9640942-2.2939453 5.5371094v3.1708984zm14.640625-10.1770629c.5785522-.2070312 1.0823364-.5869141 1.4387207-1.0852051l1.5797729.4500732c.0770874 1.2186279.8771973 2.2344971 1.9815063 2.6280518v8.1841431h-5v-10.177063zm6.8208007-1.3942261c.8820572 1.5093575-1.6768417 2.3224926-1.8213043.5712547-.0199928-.9465523 1.2906227-1.3720512 1.8213043-.5712547zm6.178711-5.428711c1.3140793.023262 1.3140297 1.9769096-.000042 1.9999981-1.3082962-.0208778-1.3200569-1.974102.000042-1.9999981zm-1.7024536 3.4420166c.218689.1520996.4526978.2727661.7024536.3625488v13.1954346h-4.9995117v-8.1844482c1.4333534-.4772072 2.3470688-2.1419964 1.8797607-3.6416626zm-12.2975464-.4420166c.6516266-.0085373 1.1531334.6482544.9584885 1.2753983-.1962814.6835861-1.1425705.9580002-1.6704025.4189377-.6277371-.5854607-.1465569-1.7240162.711914-1.694336zm-7 7c.2670898 0 .5131836.1025391.7124023.3066406.6272182.5837688.1455345 1.7237434-.7124329 1.6933346-1.3140659-.0231761-1.3139629-1.9769325.0000306-1.9999752zm1 3.8157349c1.6097183-.5170975 2.5047207-2.5565872 1.7009888-4.1026611l3.0131836-3.0131836c.0934448.0447998.1884766.0834351.2863159.1181641v10.1819458h-5.0004883z"/></g></svg>