<svg id="Layer_1" enable-background="new 0 0 512 512" height="512" viewBox="0 0 512 512" width="512" xmlns="http://www.w3.org/2000/svg"><path d="m482.605 88.636h-27.349v-27.763h10.949c.031-.003.059 0 .082 0 3.34 0 6.047-2.703 6.047-6.044 0-2.007-.979-3.784-2.482-4.885l-37.14-35.955c-2.337-2.269-6.053-2.276-8.401-.009l-37.813 36.504c-1.775 1.707-2.332 4.325-1.407 6.609.92 2.283 3.138 3.779 5.602 3.779h10.95v27.763h-27.238c1.23-4.88-.31-10.245-4.227-14.165l-16.285-16.16c-4.46-4.658-11.017-6.094-16.124-3.628l-13.469 5.894c-11.719-7.148-24.322-12.385-37.557-15.588l-5.293-13.631c-2.083-5.404-7.534-8.9-13.899-8.9h-23.095c-6.368 0-11.816 3.496-13.894 8.88l-5.302 13.651c-13.087 3.179-25.687 8.411-37.536 15.588l-13.258-5.85c-5.452-2.519-11.871-1.108-16.247 3.472l-16.415 16.293c-3.878 3.88-5.428 9.211-4.196 14.145h-27.251v-27.763h10.95.042c3.36-.164 6.087-2.695 6.089-6.044 0-2.012-.984-3.793-2.497-4.89l-37.255-35.959c-2.339-2.268-6.059-2.26-8.397.009l-37.694 36.499c-1.775 1.711-2.327 4.325-1.404 6.609.924 2.283 3.142 3.775 5.603 3.775h10.951v27.763h-27.347c-3.336 0-6.046 2.706-6.046 6.045v303.848c0 3.34 2.71 6.044 6.046 6.044h170.237v35.604c0 15.211-12.373 27.582-27.586 27.582h-24.531c-3.339 0-6.046 2.709-6.046 6.046v19.868c0 3.334 2.707 6.043 6.046 6.043h216.968c3.337 0 6.044-2.709 6.044-6.043v-19.868c0-3.337-2.707-6.046-6.044-6.046h-24.533c-15.21 0-27.588-12.371-27.588-27.582v-35.604h170.24c3.335 0 6.042-2.704 6.042-6.044v-303.847c0-3.339-2.707-6.045-6.042-6.045zm-54.1-61.899 22.774 22.048h-2.066c-3.336 0-6.046 2.704-6.046 6.044v59.658h-29.436v-59.658c0-3.34-2.703-6.044-6.045-6.044h-2.027zm-278.167 56.317 16.505-16.388c.835-.877 1.874-1.273 2.649-.922l16.279 7.177c1.848.816 3.979.66 5.688-.428 12.386-7.909 25.693-13.435 39.546-16.423 1.986-.429 3.624-1.826 4.362-3.719l6.466-16.651c.261-.682 1.34-1.155 2.622-1.155h23.095c1.278 0 2.354.472 2.621 1.171l6.466 16.636c.735 1.893 2.371 3.29 4.354 3.719 14.037 3.03 27.336 8.547 39.534 16.405 1.699 1.098 3.846 1.266 5.694.453l16.589-7.264c.462-.231 1.477.082 2.459 1.112l16.379 16.261c.902.899 1.307 2.062 1.036 2.704l-7.301 16.278c-.839 1.87-.676 4.04.44 5.759 7.823 12.084 13.345 25.381 16.4 39.519.429 1.983 1.823 3.619 3.719 4.354l16.647 6.473c.75.289 1.278 1.36 1.278 2.615v23.095c0 1.254-.522 2.334-1.294 2.626l-16.632 6.46c-1.896.739-3.29 2.376-3.719 4.363-1.85 8.563-4.676 16.707-8.231 24.457-.395-1.716-1.181-3.414-2.396-5.03-2.328-2.792-5.592-4.328-9.195-4.328h-8.081v-8.919c0-5.66-2.492-10.707-6.374-14.224 1.111-5.57 1.707-11.23 1.707-16.892 0-46.16-37.499-83.712-83.593-83.712-46.155 0-83.709 37.552-83.709 83.712 0 1.621.07 3.271.167 4.901-2.975 3.369-4.84 7.739-4.84 12.572v59.776h-.774c-3.835 0-7.164 1.62-9.194 4.333-2.348 2.82-3.224 6.346-2.481 9.805l.665 3.422-5.444-5.4c-1.115-1.167-1.319-2.368-1.121-2.82l7.304-16.393c.832-1.876.658-4.048-.462-5.764-7.784-11.907-13.299-25.199-16.386-39.497-.428-1.987-1.826-3.624-3.718-4.363l-16.657-6.468c-.75-.284-1.27-1.364-1.27-2.618v-23.095c0-1.255.522-2.326 1.291-2.623l16.636-6.465c1.892-.734 3.29-2.37 3.718-4.354 3.051-14.134 8.568-27.425 16.397-39.522 1.113-1.715 1.282-3.885.44-5.755l-4.043-9.013c-.174-.599-.411-1.163-.748-1.666l-2.458-5.475c-.32-.766.084-1.928.968-2.812zm212.326 175.861c.207.474.007 1.675-.999 2.726l-5.497 5.459 3.083-15.841zm-195.427 2.772h45.141c1.855 0 3.612-.854 4.758-2.314l27.393-34.911 70.354-.166c.44.104.898.174 1.376.174.483 0 .95-.074 1.397-.182l19.077-.045c.495.133 1.006.227 1.544.227.543 0 1.063-.1 1.564-.231l12.368-.032-11.46 58.817c-.018.099-.042.194-.058.292l-7.52 38.591c-.174.944-.879 1.529-1.836 1.529h-150.668c-.958 0-1.662-.585-1.847-1.566zm155.067-49.305v-16.04h2.926c3.798 0 7 3.264 7 7.121v8.919zm-80.722 0c-1.856 0-3.61.849-4.755 2.308l-27.385 34.908h-7.535v-79.822h108.307v42.606zm84.96-27.994c-.438-.029-.859-.133-1.313-.133h-2.926v-20.525c0-3.339-2.71-6.044-6.046-6.044h-120.395c-3.334 0-6.044 2.705-6.044 6.044v7.001h-3.051c-.774 0-1.51.141-2.26.231.75-38.854 32.531-70.237 71.552-70.237 39.428 0 71.504 32.13 71.504 71.622 0 4.029-.362 8.056-1.021 12.041zm-146.774 5.433c0-2.046.894-3.868 2.29-5.146.32-.206.611-.441.876-.701 1.105-.726 2.421-1.155 3.834-1.155h3.051v66.778h-10.051zm-96.27-163.084 22.849 22.048h-2.033c-3.335 0-6.042 2.704-6.042 6.044v59.658h-29.439v-59.658c0-3.34-2.707-6.044-6.043-6.044h-2.066zm256.455 453.112h18.491v7.78h-204.882v-7.78h18.488c16.829 0 31.21-10.548 36.965-25.369h59.016c3.339 0 6.043-2.707 6.043-6.044 0-3.336-2.704-6.044-6.043-6.044h-56.418c.042-.738.111-1.468.111-2.215v-35.604h88.555v35.604c-.001 21.877 17.798 39.672 39.674 39.672zm136.607-87.365h-441.119v-291.758h21.303v19.807c0 3.334 2.709 6.043 6.046 6.043h41.523c3.337 0 6.044-2.709 6.044-6.043v-19.807h32.437l1.474 3.29c-7.121 11.635-12.351 24.234-15.565 37.53l-13.632 5.299c-5.481 2.105-9.021 7.561-9.021 13.895v23.095c0 6.341 3.543 11.796 9.003 13.895l13.65 5.302c3.239 13.439 8.468 26.049 15.565 37.56l-5.995 13.457c-2.281 5.187-.929 11.494 3.553 16.178l16.38 16.258c.544.548 1.13 1 1.719 1.45l7.022 36.199c1.261 6.708 6.9 11.391 13.721 11.391h150.669c6.818 0 12.464-4.683 13.709-11.347l7.067-36.273c.57-.436 1.146-.877 1.675-1.405l16.498-16.388c4.377-4.568 5.727-10.876 3.43-16.088l-5.979-13.432c7.098-11.507 12.32-24.111 15.568-37.56l13.624-5.294c5.483-2.106 9.029-7.562 9.029-13.902v-23.095c0-6.334-3.546-11.789-9.005-13.892l-13.648-5.302c-3.217-13.305-8.443-25.903-15.568-37.53l1.474-3.29h32.434v19.807c0 3.334 2.705 6.043 6.044 6.043h41.526c3.339 0 6.044-2.709 6.044-6.043v-19.807h21.303v291.757zm-17.651-44.633c3.336 0 6.045 2.704 6.045 6.044 0 3.337-2.709 6.043-6.045 6.043h-405.693c-3.336 0-6.043-2.706-6.043-6.043 0-3.34 2.707-6.044 6.043-6.044zm-189.979 28.422c0 3.339-2.711 6.043-6.047 6.043h-12.566c-3.339 0-6.043-2.704-6.043-6.043 0-3.341 2.704-6.043 6.043-6.043h12.566c3.336 0 6.047 2.703 6.047 6.043zm-60.56-92.879c-2.233-2.339-2.233-6.02 0-8.354l18.19-19.026c2.31-2.412 6.138-2.495 8.544-.193 2.415 2.308 2.496 6.135.194 8.545l-14.194 14.852 14.194 14.854c2.302 2.412 2.221 6.234-.194 8.544-1.17 1.121-2.671 1.673-4.171 1.673-1.594 0-3.186-.626-4.373-1.864zm75.532-19.016c-2.318-2.402-2.243-6.229.161-8.543 2.403-2.316 6.229-2.242 8.546.167l18.307 19.022c2.254 2.341 2.254 6.043.003 8.385l-18.31 19.028c-1.187 1.231-2.771 1.85-4.353 1.85-1.51 0-3.018-.561-4.193-1.687-2.404-2.312-2.479-6.138-.164-8.546l14.277-14.838zm-30.295 48.229v-66.658c0-3.34 2.703-6.045 6.043-6.045 3.339 0 6.047 2.705 6.047 6.045v66.658c0 3.336-2.708 6.045-6.047 6.045s-6.043-2.709-6.043-6.045z"/></svg>