<svg id="Data_Warehousing" viewBox="0 0 64 64" xmlns="http://www.w3.org/2000/svg" data-name="Data Warehousing"><path d="m55.96 18.51-21.55-15.71c-1.46-1.06-3.35-1.06-4.82 0l-21.55 15.71c-1.28.93-2.04 2.52-2.04 4.25v26.19c0 2.78 2 5.05 4.45 5.05h4.55c.55 0 1-.45 1-1s-.45-1-1-1h-1v-24h36v24h-1c-.55 0-1 .45-1 1s.45 1 1 1h4.55c2.45 0 4.45-2.27 4.45-5.05v-26.19c0-1.72-.76-3.31-2.04-4.25zm-41.96 7.49v-1c0-.55.45-1 1-1h34c.55 0 1 .45 1 1v1zm42 22.95c0 1.68-1.1 3.05-2.45 3.05h-1.55v-27c0-1.65-1.35-3-3-3h-34c-1.65 0-3 1.35-3 3v27h-1.55c-1.35 0-2.45-1.37-2.45-3.05v-26.19c0-1.07.47-2.08 1.22-2.63l21.55-15.71c.77-.56 1.7-.56 2.47 0l21.55 15.71c.75.55 1.22 1.56 1.22 2.63v26.19z"/><path d="m32 32c-6.96 0-14 1.72-14 5v20c0 3.28 7.04 5 14 5s14-1.72 14-5v-20c0-3.28-7.04-5-14-5zm12 15c0 1.06-4.56 3-12 3s-12-1.94-12-3v-7.3c2.58 1.52 7.31 2.3 12 2.3s9.42-.78 12-2.3zm-12-13c7.44 0 12 1.94 12 3s-4.56 3-12 3-12-1.94-12-3 4.56-3 12-3zm0 26c-7.44 0-12-1.94-12-3v-7.3c2.58 1.52 7.31 2.3 12 2.3s9.42-.78 12-2.3v7.3c0 1.06-4.56 3-12 3z"/><circle cx="32" cy="56" r="1"/><circle cx="32" cy="46" r="1"/><path d="m32 10c-2.21 0-4 1.79-4 4s1.79 4 4 4 4-1.79 4-4-1.79-4-4-4zm0 6c-1.1 0-2-.9-2-2s.9-2 2-2 2 .9 2 2-.9 2-2 2z"/></svg>