<?xml version="1.0"?>
<svg xmlns="http://www.w3.org/2000/svg" id="Layer_1" data-name="Layer 1" viewBox="0 0 512 512"><path d="M289,407.71a8.25,8.25,0,0,0-8.25,8.25v36.31A2.75,2.75,0,0,1,278,455H234a2.75,2.75,0,0,1-2.75-2.75V416a8.25,8.25,0,0,0-6.61-8.09,154.89,154.89,0,0,1-55-22.87,8.27,8.27,0,0,0-10.39,1.05L133.5,411.78a2.76,2.76,0,0,1-3.9,0L98.49,380.67a2.77,2.77,0,0,1,0-3.9l25.73-25.72a8.25,8.25,0,0,0,1-10.39,154.89,154.89,0,0,1-22.87-55A8.25,8.25,0,0,0,94.31,279H58a2.75,2.75,0,0,1-2.75-2.75v-44A2.76,2.76,0,0,1,58,229.52H94.42a8.24,8.24,0,0,0,8.08-6.6,155.42,155.42,0,0,1,22.76-55,8.24,8.24,0,0,0-1-10.39L98.49,131.77a2.77,2.77,0,0,1,0-3.9L129.6,96.76a2.76,2.76,0,0,1,3.9,0l25.72,25.73a8.27,8.27,0,0,0,10.39,1.05,155.07,155.07,0,0,1,55-22.87,8.25,8.25,0,0,0,6.61-8.09V56.27A2.76,2.76,0,0,1,234,53.52h44a2.76,2.76,0,0,1,2.75,2.75V92.58a8.25,8.25,0,0,0,16.5,0V56.27A19.28,19.28,0,0,0,278,37H234a19.28,19.28,0,0,0-19.25,19.25V86a171,171,0,0,0-48.53,20.17L145.16,85.1a19.71,19.71,0,0,0-27.22,0L86.83,116.21a19.26,19.26,0,0,0,0,27.22l21,21.06A171.9,171.9,0,0,0,87.81,213H58a19.28,19.28,0,0,0-19.25,19.25v44A19.28,19.28,0,0,0,58,295.52H87.71a171,171,0,0,0,20.17,48.53l-21,21.06a19.26,19.26,0,0,0,0,27.22l31.11,31.11a19.68,19.68,0,0,0,27.22,0l21.06-21a171.23,171.23,0,0,0,48.53,20.16v29.71A19.28,19.28,0,0,0,234,471.52h44a19.28,19.28,0,0,0,19.25-19.25V416A8.25,8.25,0,0,0,289,407.71Z"/><path d="M330.25,188.27A41.29,41.29,0,0,0,289,147H190a41.13,41.13,0,0,0-24.5,74.25,40.88,40.88,0,0,0,0,66A41.13,41.13,0,0,0,190,361.52h99a41.13,41.13,0,0,0,24.5-74.25,40.88,40.88,0,0,0,0-66A41.11,41.11,0,0,0,330.25,188.27Zm-16.5,132A24.77,24.77,0,0,1,289,345H190a24.75,24.75,0,0,1,0-49.5h99A24.77,24.77,0,0,1,313.75,320.27Zm0-66A24.77,24.77,0,0,1,289,279H190a24.75,24.75,0,0,1,0-49.5h99A24.77,24.77,0,0,1,313.75,254.27ZM289,213H190a24.75,24.75,0,0,1,0-49.5h99a24.75,24.75,0,0,1,0,49.5Z"/><path d="M278,180H234a8.25,8.25,0,0,0,0,16.5h44a8.25,8.25,0,0,0,0-16.5Z"/><circle cx="201" cy="188.27" r="11"/><path d="M234,262.52h44a8.25,8.25,0,0,0,0-16.5H234a8.25,8.25,0,0,0,0,16.5Z"/><circle cx="201" cy="254.27" r="11"/><path d="M234,328.52h44a8.25,8.25,0,0,0,0-16.5H234a8.25,8.25,0,0,0,0,16.5Z"/><circle cx="201" cy="320.27" r="11"/><path d="M322,130.52a8.24,8.24,0,0,0,6.61-3.3l30.52-40.7H414A30.25,30.25,0,1,0,414,70H355a8.28,8.28,0,0,0-6.6,3.3l-33,44a8.25,8.25,0,0,0,6.59,13.2Zm121-66a13.75,13.75,0,1,1-13.75,13.75A13.77,13.77,0,0,1,443,64.52Z"/><path d="M443,290a30.19,30.19,0,0,0-29,22H379l-20.26-10.13a8.25,8.25,0,0,0-7.38,14.76l22,11a8.27,8.27,0,0,0,3.69.87h37A30.19,30.19,0,1,0,443,290Zm0,44a13.75,13.75,0,1,1,13.75-13.75A13.76,13.76,0,0,1,443,334Z"/><path d="M443,158a30.19,30.19,0,0,0-29,22H377a8.22,8.22,0,0,0-5.83,2.42l-11,11a8.24,8.24,0,1,0,11.66,11.66l8.59-8.58H414A30.19,30.19,0,1,0,443,158Zm0,44a13.75,13.75,0,1,1,13.75-13.75A13.76,13.76,0,0,1,443,202Z"/><path d="M443,400a30.19,30.19,0,0,0-29,22H359.12l-30.52-40.7a8.25,8.25,0,0,0-13.2,9.9l33,44a8.25,8.25,0,0,0,6.6,3.3h59A30.19,30.19,0,1,0,443,400Zm0,44a13.75,13.75,0,1,1,13.75-13.75A13.76,13.76,0,0,1,443,444Z"/></svg>
