<svg id="Layer_1" enable-background="new 0 0 500 500" viewBox="0 0 500 500" xmlns="http://www.w3.org/2000/svg"><path d="m432.696 111.627c-1.246-9.965-10.83-17.175-20.309-18.212-1.119.754-2.305.162-3.224.906-.297.505-.713.223-1.029.478-.223.457-.531.54-.841.728 3.236 5.645 9.395 9.95 11.09 16.596 1.484 6.319-2.455 14.2-9.114 15.472-8.481 2.337-16.187-5.598-15.387-14.022 1.039-6.514 5.638-13.251 11.638-16.372.67-.407 1.62-.648.505-1.304.03-.373.464-.77-.01-.969.463-.257.912-.201 1.278-.692-29.398-7.022-33.691 43.36-4.886 47.126-1.818 7.698-1.176 16.027-2.206 24.128-7.511 8.695-18.023 15.51-23.444 25.735-6.851-16.808-14.935-8.607-28.78-6.755-2.829-3.184-5.815-6.226-8.945-9.114 3.689-21.468 10.836-20.193-10.827-31.744 4.501-8.112 1.562-22.221.988-31.326-.823-7.319.252-15.215-2.51-22.158 25.851-2.595 28.164-47.727-.681-43.974-.803.134-2.946.486-1.704 1.447-.061.349-.475.709-.103.964-.381.211-.758.121-1.033.575.675 1.918 2.917 1.132 3.862 2.323.106.654.911.305 1.375.517 1.701.841 3.557 2.691 4.467 4.338 14.131 24.982-32.203 28.247-19.079.014.954-2.261 3.361-4.272 5.8-5.076 1.062-1.475 2.538-2.153 3.576-3.406-5.512-9.023-19.614-2.067-22.998 5.971-8.568 14.508 1.444 34.048 17.995 36.282-.181.751-.223 1.511-.385 2.246-.235.299-.733.473-.499.819-1.265 14.472-1.719 28.906-1.001 43.437-3.192-2.286-7.531-4.023-10.919-.897-.16.128-13.095 11.519-13.251 11.647-3.784-1.244-7.629-2.311-11.518-3.194-.476-1.202-4.877-15.1-5.433-16.67-1.457-5.585-8.303-5.334-12.926-5.104-30.502 2.159-28.043-8.362-36.896 21.895-3.955.895-7.867 1.93-11.727 3.16-6.917-4.764-14.791-19.087-24.194-11.131 1.267-7.913-.277-16.154-.917-24.025-.822-7.319.252-15.215-2.51-22.158 25.851-2.595 28.165-47.727-.681-43.974-.803.134-2.946.486-1.704 1.447-.061.349-.475.709-.103.964-.381.211-.758.12-1.033.575.675 1.918 2.917 1.132 3.862 2.323.106.654.911.305 1.375.517 1.701.841 3.557 2.691 4.467 4.338 14.132 24.982-32.204 28.248-19.079.014.954-2.261 3.361-4.272 5.8-5.076 1.062-1.475 2.538-2.153 3.576-3.406-5.512-9.023-19.613-2.067-22.998 5.971-8.568 14.508 1.444 34.048 17.995 36.282-2.404 17.085-4.202 36.457.053 53.143-21.495 11.375-15.111 10.669-11.456 31.892-3.028 2.735-5.9 5.643-8.647 8.659-.028-.008-17.368-3.667-17.392-3.677-5.792-1.647-8.771 5.586-11.042 9.54-6.667-9.458-16.167-16.301-24.826-23.771-.607-8.399.498-17.429-2.923-25.27 27.569-2.618 28.671-50.922-2.063-43.415-.461.347.174.413.303.771-.061.348-.475.709-.103.964-.381.211-.758.12-1.033.575.675 1.918 2.916 1.132 3.862 2.322.106.654.911.305 1.375.517 1.701.841 3.557 2.691 4.467 4.338 14.132 24.983-32.204 28.247-19.08.014.954-2.261 3.361-4.272 5.8-5.076 1.062-1.475 2.538-2.153 3.576-3.406-5.428-9.084-19.649-1.999-22.999 5.971-8.593 14.831 1.487 34.114 18.312 36.338-1.431 5.473-1.546 11.046-1.717 16.86.225 5.99-3.583 13.582 2.197 17.937 9.704 8.112 17.962 18.38 29.216 24.208-12.891 18.079-5.059 17.424 6.708 31.703-1.264 4.025-2.328 8.115-3.064 12.265-5.79 2.208-11.829 3.772-17.562 6.13-6.364 3.01-2.21 11.441-3.104 17.045 1.218 26.824-3.404 21.664 22.6 29.654 1.22 4.733 2.592 9.494 4.084 14.155-3.994 5.677-9.579 11.081-12.705 17.309-9.248-2.754-22.971 1.165-32.348 2.718.39.248 1.028.081 1.335.429-.289.537-1.211.706-.123.968-1.027.228-2.123.128-3.056.63 7.514 4.334 30.41-2.278 32.707 6.74-.029 30.687-.725 61.802-1.474 92.527.352 2.762-1 5.864-4.098 6.121-8.413.178-17.912-.028-26.411.013-2.491.286-5.127-1.608-5.241-4.186-.399-24.49.904-50.955-1.749-75.324.357-9.183-4.783-22.984 6.264-27.183-28.041-15.051-16.438 86.93-18.893 102.254.263 15.686 14.975 20.453 28.329 18.361 14.515-.047 34.284 2.309 35.311-17.694 102.402 37.387 168 28.634 249.02-46.491 12.309-10.64 26.465-19.983 37.994-31.479 19.354-25.882-11.056-54.385-36.406-34.711-2.606-3.83-5.994-7.545-9.184-10.991 1.562-4.912 3.893-9.377 4.466-14.585 22.203-7.916 22.292-.119 21.964-26.158 1.092-23.941.032-17.858-20.794-25.808-.917-4.354-2.057-8.66-3.414-12.897 15.248-18.153 18.364-12.249 7.177-31.231 12.133-4.063 21.473-17.972 30.259-26.974 2.875-3.392.573-26.907-1.362-31.463 14.149-1.425 24.55-15.879 22.125-29.757zm-303.362 228.243c-.001-.014-.151-1.018-.151-.994.794-.085 1.726-.301 2.288-.138-.699.813-2.38 1.128-.065 1-.692.182-1.369.375-2.042.576zm261.56-8.192c16.542-10.715 27.763 10.306 10.89 20.651-16.5 12.837-36.809 28.818-53.133 41.949-77.151 67.169-128.027 47.135-217.847 37.428-.337-29.836-.557-60.387-1.367-90.16 17.637-2.273 36.066-3.706 53.202 2.492 9.589 3.083 17.544 9.665 28.059 8.408 16.715.945 36.05.167 52.826.593 7.563-.848 15.026 4.931 15.257 12.688.505 3.334-2.212 6.47-1.238 9.747-.885 1.178-2.671 1.685-3.893 2.49-.395-.024-.765-.366-.932.005-8.892 3.957-19.129-.847-28.525.655-6.401-.031-13.318.231-19.798.265-6.808-.53-13.112 1.803-19.453 2.929-.568 1.021-1.417.594-1.906 1.402-.145.516-.455.262-.653.531-.136.468-.345.565-.558.768 4.74 13.715 38.775 7.555 50.819 7.199 10.519-.282 26.325 1.038 29.958-11.588 21.755 7.091 39.714-11.604 58.081-20.154 14.736-8.387 35.43-19.913 50.211-28.298zm-223.304-45.851c-9.873-169.131 245.466-99.42 150.404 42.902 5.757-28.518 3.532-58.481 3.283-87.446-.747-11.137-15.397-5.531-22.715-6.472-5.31.066-13.99-1.229-14.048 6.472 1.939 36.642-1.616 74.031 6.227 110.123-1.616.714-2.249 1.875-3.752 2.555-3.97-7.002-11.735-11.689-19.759-12.11 7.135-21.212 4.424-44.732 4.082-66.81.074-7.973-8.611-6.79-14.165-6.606-9.238 1.191-24.863-3.54-21.885 11.361.721 20.769-1.061 42.14 5.026 62.233-.638.005-23.872.27-23.415.244 7.682-25.14 4.774-52.388 4.854-78.392-.79-6.013 1.831-16.661-7.037-16.995-32.635 1.503-29.5-4.98-29.196 23.575.785 20.678-.637 41.786 4.252 62.044-11.627-12.893-20.213-29.216-22.156-46.678zm127.419 62.999c2.336-33.056 2.383-66.915 3.384-100.29 2.922-.207 5.825 0 8.765-.009.455 28.984-.564 58.693 4.255 87.128-4.638 5.404-11.156 8.518-16.404 13.171zm-49.924-6.829c2.437-19.289 2.121-39.636 3.056-59.505 3.059-.115 6.117-.186 9.172-.301.402 19.877-.395 40.375 3.71 59.724-5.021-.27-10.866.183-15.938.082zm-42.38.595c-2.776-1.477-5.598-1.915-7.412-4.683 2.034-25.302 2.244-51.317 3.083-76.95 2.95.071 6.136-.237 9.069-.211.514 27.148-.855 55.076 4.089 81.599-2.949.066-5.894.142-8.829.245zm177.505-20.352c-.071.042-.143.083-.214.125-.163-.285-.461-.637-.637-.958.288.282.566.554.851.833zm-.899-.093c.151.104.332.252.471.342-.232.137-.465.272-.698.408-.292-.375-.546-.737-.64-1.059.296.106.582.208.867.309zm-5.274-107.064c-17.794 18.378-9.642 12.063-5.944 34.401 1.149 5.363 16.327 6.785 21.008 9.153.21 8.336.683 16.643 1.04 24.964-4.446 2.427-17.211 5.164-19.403 8.561-1.844 21.783-10.058 14.928 7.786 31.064-12.097 7.2-37.45 21.916-49.983 29.161-10.901 4.924-25.824 19.023-38.259 17.223.531-4.454-.127-9.116-2.013-13.192 45.411-7.789 70.985-60.596 62.855-103.49-41.148-167.489-284.459-40.999-163.759 83.815-18.996-5.226-39.58-4.073-58.259 1.738-.745-3.683-3.585-6.676-3.912-10.336 3.411-3.92 19.015-14.063 15.925-18.861-5.579-23.175.813-18.854-22.796-27.686.243-7.074.319-14.24.426-21.347 26-7.095 17.781-5.336 25.892-28.254 2.16-4.689-3.36-9.217-6.057-12.359 0 0-6.318-7.067-6.318-7.067l10.029-17.182c6.705.377 17.756 6.923 23.341.954 16.271-18.975 18.323-9.634 11.856-36.421l17.354-10.19c11.973 9.162 11.522 16.542 27.743 9.555 18.782-3.129 13.617-7.095 19.732-23.005 6.334-.023 14.999-.01 21.245-.078 7.882 25.943 4.644 17.258 28.201 24.962 6.014 2.317 14.01-9.824 18.944-12.981l19.173 11.023c-.179 4.606-6.562 19.773-1.762 22.828 19.466 16.776 9.258 17.456 36.269 10.976 3.751 6.457 7.871 13.387 11.62 19.796-.646.75-1.255 1.599-1.974 2.275z"/></svg>