<svg clip-rule="evenodd" fill-rule="evenodd" height="512" image-rendering="optimizeQuality" shape-rendering="geometricPrecision" text-rendering="geometricPrecision" viewBox="0 0 1707 1707" width="512" xmlns="http://www.w3.org/2000/svg"><g id="Layer_x0020_1"><g id="_457480552"><g><path d="m1085 1497h-447c-34 0-61-27-61-61v-706c0-34 27-61 61-61h447c34 0 61 27 61 61v706c0 34-27 61-61 61zm-447-788c-12 0-21 9-21 21v706c0 12 9 21 21 21h447c12 0 21-9 21-21v-706c0-12-9-21-21-21z"/></g><g><path d="m1126 1373h-529c-11 0-20-9-20-20s9-20 20-20h529c11 0 20 9 20 20s-9 20-20 20zm0-540h-529c-11 0-20-9-20-20s9-20 20-20h529c11 0 20 9 20 20s-9 20-20 20z"/></g><g><path d="m918 768h-113c-11 0-20-9-20-20s9-20 20-20h113c11 0 20 9 20 20s-9 20-20 20z"/></g><g><path d="m918 1435h-113c-11 0-20-9-20-20s9-20 20-20h113c11 0 20 9 20 20s-9 20-20 20z"/></g><g><path d="m597 797c-6 0-11-2-15-6-39-41-97-97-173-169-8-7-9-20-1-28 7-8 20-8 28-1 77 72 136 129 175 170 8 8 7 21-1 29-3 3-8 5-13 5z"/></g><g><path d="m1126 822c-4 0-9-2-13-5-8-8-9-20-1-29 46-51 133-134 198-195 8-7 21-7 28 1 8 8 7 21-1 28-64 61-151 143-196 193-4 5-9 7-15 7z"/></g><g><path d="m859 709c-11 0-20-9-20-20v-154c0-11 9-20 20-20s20 9 20 20v154c0 11-9 20-20 20z"/></g><g><path d="m597 1103h-271c-11 0-20-9-20-20s9-20 20-20h271c11 0 20 9 20 20s-9 20-20 20z"/></g><g><path d="m1381 1103h-255c-11 0-20-9-20-20s9-20 20-20h255c11 0 20 9 20 20s-9 20-20 20z"/></g><g><path d="m1534 1256c-96 0-173-77-173-173 0-95 77-173 173-173 95 0 173 78 173 173 0 96-78 173-173 173zm0-306c-74 0-133 60-133 133s59 133 133 133c73 0 133-60 133-133s-60-133-133-133z"/></g><g><path d="m1436 677c-95 0-173-77-173-173 0-95 78-173 173-173 96 0 173 78 173 173 0 96-77 173-173 173zm0-306c-73 0-133 60-133 133s60 133 133 133 133-60 133-133-59-133-133-133z"/></g><g><path d="m859 555c-95 0-173-77-173-173 0-95 78-173 173-173 96 0 173 78 173 173 0 96-77 173-173 173zm0-306c-73 0-133 60-133 133 0 74 60 133 133 133 74 0 133-59 133-133 0-73-59-133-133-133z"/></g><g><path d="m310 677c-96 0-173-77-173-173 0-95 77-173 173-173 95 0 173 78 173 173 0 96-78 173-173 173zm0-306c-74 0-133 60-133 133s59 133 133 133c73 0 133-60 133-133s-60-133-133-133z"/></g><g><path d="m173 1256c-95 0-173-77-173-173 0-95 78-173 173-173s173 78 173 173c0 96-78 173-173 173zm0-306c-73 0-133 60-133 133s60 133 133 133 133-60 133-133-60-133-133-133z"/></g><g><g><path d="m861 1273c-104 0-189-85-189-190 0-104 85-189 189-189 105 0 190 85 190 189 0 105-85 190-190 190zm0-339c-82 0-149 67-149 149 0 83 67 150 149 150 83 0 150-67 150-150 0-82-67-149-150-149z"/></g><g><path d="m904 1195c-8 0-17-2-24-6l-110-64c-15-9-24-25-24-42s9-33 24-42l110-63c7-4 16-7 24-7 13 0 25 5 34 15 9 9 14 21 14 33v128c0 27-22 48-48 48zm1-184c-2 0-4 1-5 1l-110 64c-3 1-4 4-4 7s1 6 4 7l110 64c5 3 12 0 12-7v-128c0-2-1-4-2-5s-3-3-5-3z"/></g></g></g></g></svg>