<svg enable-background="new 0 0 64 64" viewBox="0 0 64 64" xmlns="http://www.w3.org/2000/svg"><g id="Layer_1" display="none"><g display="inline" fill="none" stroke="#b3b3b3" stroke-miterlimit="10" stroke-width=".1"><path d="m2 2h60v60h-60z"/><path d="m32 2v60"/><path d="m62 32h-60"/><path d="m2 2 60 60"/><path d="m10 10h44v44h-44z"/><path d="m62 2-60 60"/><path d="m2 32 30-30"/><path d="m32 2 30 30"/><path d="m62 32-30 30"/><path d="m32 62-30-30"/><circle cx="32" cy="32" r="21"/></g></g><g id="Layer_2"><g><g><path d="m35.3 49.8-7.8-6.8 7.8-6.8 1.4 1.6-6.2 5.2 6.2 5.2z"/></g></g><g><g><path d="m44.7 49.8-1.4-1.6 6.2-5.2-6.2-5.2 1.4-1.6 7.8 6.8z"/></g></g><g><g><path d="m39 36.9h2v12.2h-2z" transform="matrix(.986 .165 -.165 .986 7.621 -5.996)"/></g></g><g><path d="m19 11c0-.6.4-1 1-1h2v-2h-2c-1.7 0-3 1.3-3 3v1c0 1.1-.9 2-2 2v2c1.1 0 2 .9 2 2v1c0 1.7 1.3 3 3 3h2v-2h-2c-.6 0-1-.4-1-1v-1.8c0-.9-.4-1.7-1-2.2.6-.6 1-1.4 1-2.2z"/></g><g><path d="m29 11c0-.6-.4-1-1-1h-2v-2h2c1.7 0 3 1.3 3 3v1c0 1.1.9 2 2 2v2c-1.1 0-2 .9-2 2v1c0 1.7-1.3 3-3 3h-2v-2h2c.6 0 1-.4 1-1v-1.8c0-.9.4-1.7 1-2.2-.6-.6-1-1.4-1-2.2z"/></g><g><path d="m10 34v-6h-3c-2.8 0-5-2.2-5-5v-16c0-2.8 2.2-5 5-5h34c2.8 0 5 2.2 5 5v16c0 2.8-2.2 5-5 5h-22.9zm-3-30c-1.7 0-3 1.3-3 3v16c0 1.7 1.3 3 3 3h5v4l5.4-4h23.6c1.7 0 3-1.3 3-3v-16c0-1.7-1.3-3-3-3z"/></g><g><path d="m54 62-8.1-6h-22.9c-2.8 0-5-2.2-5-5v-16c0-2.8 2.2-5 5-5h34c2.8 0 5 2.2 5 5v16c0 2.8-2.2 5-5 5h-3zm-31-30c-1.7 0-3 1.3-3 3v16c0 1.7 1.3 3 3 3h23.6l5.4 4v-4h5c1.7 0 3-1.3 3-3v-16c0-1.7-1.3-3-3-3z"/></g></g></svg>