<svg id="Layer_1" viewBox="0 0 512 512" xmlns="http://www.w3.org/2000/svg" data-name="Layer 1"><path d="m256 55.334c-33.656 0-61.038 27.382-61.038 61.038s27.381 61.037 61.038 61.037 61.038-27.381 61.038-61.037-27.382-61.038-61.038-61.038zm0 108.075c-25.937 0-47.038-21.101-47.038-47.037s21.101-47.038 47.038-47.038 47.038 21.102 47.038 47.038-21.101 47.037-47.038 47.037zm243.133 231.931-7.9-1.559-5.473-13.209 4.485-6.688c2.918-4.35 2.348-10.194-1.355-13.898l-15.171-15.17c-3.703-3.705-9.548-4.274-13.896-1.356l-6.689 4.485-13.209-5.473-1.559-7.902c-1.013-5.137-5.549-8.865-10.785-8.865h-3.728v-127.458c0-2.409-1.239-4.649-3.281-5.93l-73.689-46.216.99-2.389 10.821-2.135c5.608-1.105 9.679-6.057 9.679-11.772v-26.868c0-5.718-4.072-10.67-9.678-11.772l-10.822-2.135-7.577-18.288 6.145-9.163c3.182-4.747 2.559-11.126-1.482-15.167l-18.998-18.999c-4.042-4.041-10.421-4.664-15.168-1.48l-9.163 6.144-18.288-7.577-2.134-10.819c-1.105-5.609-6.057-9.681-11.773-9.681h-26.867c-5.716 0-10.668 4.07-11.774 9.68l-2.133 10.82-18.289 7.577-9.162-6.144c-4.747-3.185-11.127-2.561-15.169 1.481l-18.999 18.998c-4.041 4.042-4.664 10.421-1.48 15.168l6.144 9.162-7.577 18.288-10.819 2.134c-5.61 1.104-9.682 6.056-9.682 11.773v26.868c0 5.716 4.071 10.667 9.679 11.772l10.822 2.135 1.524 3.679-74.224 46.55c-2.041 1.28-3.281 3.521-3.281 5.93v125.834h-3.729c-5.237 0-9.773 3.729-10.785 8.867l-1.558 7.9-13.209 5.473-6.689-4.485c-4.349-2.917-10.193-2.348-13.896 1.356l-15.17 15.17c-3.705 3.703-4.275 9.548-1.358 13.896l4.486 6.689-5.473 13.209-7.901 1.559c-5.137 1.014-8.866 5.549-8.866 10.785v21.455c0 5.238 3.73 9.774 8.867 10.786l7.9 1.557 5.473 13.21-4.486 6.689c-2.917 4.35-2.345 10.194 1.357 13.896l15.171 15.171c3.703 3.703 9.547 4.273 13.896 1.356l6.689-4.485 13.209 5.473 1.558 7.899c1.013 5.139 5.548 8.868 10.785 8.868h21.456c5.236 0 9.771-3.729 10.786-8.867l1.558-7.9 13.209-5.473 6.688 4.485c4.35 2.917 10.193 2.348 13.897-1.356l15.171-15.171c3.703-3.702 4.274-9.547 1.357-13.896l-4.486-6.689 5.472-13.209 7.898-1.557c5.139-1.012 8.869-5.548 8.869-10.786v-21.455c0-5.235-3.729-9.771-8.867-10.785l-7.9-1.559-5.473-13.209 4.486-6.689c2.917-4.349 2.346-10.193-1.357-13.896l-15.172-15.172c-3.703-3.702-9.548-4.271-13.895-1.355l-6.689 4.485-13.209-5.473-1.558-7.902c-1.013-5.137-5.549-8.865-10.785-8.865h-3.727v-121.961l68.939-43.236.619 1.493-6.144 9.162c-3.184 4.747-2.561 11.126 1.48 15.168l4.55 4.55-34.513 34.514c-1.312 1.312-2.05 3.093-2.05 4.949v24.936c-12.334 3.128-21.487 14.321-21.487 27.615 0 15.707 12.779 28.486 28.487 28.486s28.486-12.779 28.486-28.486c0-13.293-9.153-24.486-21.486-27.615v-22.037l32.462-32.463 4.549 4.549c4.042 4.043 10.421 4.667 15.17 1.481l9.161-6.144 2.242.929-21.767 44.171c-.474.962-.721 2.021-.721 3.094v57.056c-10.946 3.065-19 13.123-19 25.034 0 14.336 11.664 25.999 26 25.999s26-11.663 26-25.999c0-11.911-8.054-21.969-19-25.034v-55.425l21.449-43.526 3.086 1.279 2.133 10.821c1.106 5.607 6.058 9.678 11.774 9.678h6.433v158.048c-13.66 3.18-23.871 15.447-23.871 30.061 0 17.022 13.849 30.871 30.871 30.871s30.871-13.849 30.871-30.871c0-14.614-10.211-26.88-23.871-30.061v-158.048h6.434c5.716 0 10.667-4.07 11.773-9.679l2.134-10.82 3.086-1.279 21.449 43.527v55.424c-10.946 3.065-19 13.123-19 25.034 0 14.336 11.664 26 26 26s26-11.664 26-26c0-11.911-8.054-21.969-19-25.034v-57.055c0-1.073-.247-2.132-.721-3.094l-21.767-44.172 2.242-.929 9.162 6.144c4.747 3.185 11.126 2.562 15.169-1.481l4.549-4.549 32.462 32.463v22.037c-12.334 3.128-21.487 14.321-21.487 27.614 0 15.708 12.779 28.487 28.487 28.487s28.487-12.779 28.487-28.487c0-13.292-9.153-24.485-21.487-27.614v-24.936c0-1.856-.738-3.637-2.05-4.949l-34.513-34.514 4.55-4.55c4.041-4.041 4.665-10.42 1.481-15.168l-6.144-9.162 1.153-2.783 68.405 42.901v123.586h-3.728c-5.236 0-9.772 3.729-10.786 8.867l-1.558 7.9-13.209 5.473-6.689-4.485c-4.349-2.917-10.193-2.348-13.896 1.356l-15.17 15.17c-3.705 3.703-4.275 9.548-1.358 13.896l4.486 6.689-5.473 13.209-7.9 1.559c-5.138 1.013-8.867 5.549-8.867 10.785v21.455c0 5.238 3.73 9.774 8.867 10.786l7.9 1.557 5.472 13.21-4.486 6.689c-2.917 4.35-2.345 10.194 1.357 13.896l15.171 15.171c3.703 3.703 9.547 4.273 13.896 1.356l6.689-4.485 13.209 5.473 1.558 7.901c1.014 5.137 5.549 8.866 10.785 8.866h21.455c5.236 0 9.771-3.729 10.786-8.867l1.558-7.9 13.209-5.473 6.688 4.484c4.35 2.919 10.193 2.347 13.897-1.354l15.171-15.172c3.703-3.702 4.273-9.547 1.356-13.896l-4.486-6.689 5.472-13.209 7.899-1.557c5.139-1.012 8.868-5.548 8.868-10.786v-21.455c0-5.236-3.729-9.771-8.867-10.785zm-393.926-46.481c.453 2.298 2.025 4.217 4.188 5.113l20.137 8.342c2.163.896 4.632.651 6.577-.653l7.75-5.197 11.675 11.676-5.197 7.751c-1.305 1.945-1.55 4.414-.653 6.578l8.342 20.136c.896 2.163 2.815 3.734 5.113 4.188l9.153 1.806v16.512l-9.153 1.804c-2.298.453-4.217 2.025-5.113 4.189l-8.342 20.137c-.896 2.163-.651 4.632.653 6.577l5.198 7.751-11.676 11.675-7.75-5.197c-1.946-1.305-4.414-1.551-6.578-.653l-20.136 8.343c-2.164.896-3.735 2.815-4.188 5.112l-1.805 9.154h-16.512l-1.805-9.154c-.453-2.297-2.025-4.216-4.188-5.112l-20.137-8.343c-2.163-.897-4.632-.652-6.578.653l-7.75 5.197-11.675-11.675 5.197-7.751c1.305-1.945 1.55-4.414.653-6.578l-8.343-20.137c-.896-2.163-2.815-3.735-5.113-4.188l-9.152-1.805v-16.512l9.153-1.806c2.297-.453 4.216-2.024 5.112-4.188l8.343-20.136c.896-2.164.651-4.633-.653-6.578l-5.197-7.751 11.675-11.675 7.75 5.196c1.946 1.306 4.415 1.551 6.577.653l20.137-8.342c2.164-.896 3.735-2.815 4.188-5.113l1.805-9.153h16.512l1.805 9.153zm51.308-65.964c0 7.988-6.499 14.486-14.486 14.486s-14.487-6.498-14.487-14.486 6.499-14.487 14.487-14.487 14.486 6.499 14.486 14.487zm52.609 48.056c0 6.616-5.383 11.999-12 11.999s-12-5.383-12-11.999 5.383-11.999 12-11.999 12 5.383 12 11.999zm63.747 85.902c0 9.303-7.568 16.871-16.871 16.871s-16.871-7.568-16.871-16.871 7.568-16.871 16.871-16.871 16.871 7.568 16.871 16.871zm54.004-85.902c0 6.617-5.383 12-12 12s-12-5.383-12-12 5.383-11.999 12-11.999 12 5.383 12 11.999zm57.583-48.057c0 7.988-6.499 14.487-14.487 14.487s-14.487-6.499-14.487-14.487 6.499-14.486 14.487-14.486 14.487 6.498 14.487 14.486zm-67.235-88.625-10.911-7.317c-1.946-1.305-4.414-1.551-6.578-.653l-25.215 10.447c-2.164.896-3.735 2.815-4.188 5.112l-2.541 12.886h-23.58l-2.54-12.885c-.453-2.298-2.025-4.217-4.188-5.113l-25.216-10.447c-2.163-.897-4.633-.652-6.578.653l-10.91 7.317-16.673-16.674 7.317-10.911c1.305-1.945 1.55-4.414.653-6.578l-10.447-25.215c-.896-2.163-2.815-3.734-5.112-4.188l-12.887-2.542v-23.579l12.887-2.542c2.297-.453 4.216-2.024 5.112-4.188l10.447-25.215c.896-2.164.651-4.633-.653-6.578l-7.317-10.911 16.673-16.673 10.911 7.316c1.946 1.306 4.414 1.551 6.578.653l25.216-10.447c2.164-.896 3.735-2.815 4.188-5.113l2.541-12.886h23.58l2.541 12.887c.453 2.297 2.025 4.216 4.188 5.112l25.215 10.447c2.163.896 4.631.652 6.578-.653l10.911-7.316 16.673 16.673-7.316 10.91c-1.305 1.945-1.55 4.414-.653 6.577l10.447 25.216c.896 2.164 2.815 3.735 5.112 4.188l12.887 2.542v23.579l-12.887 2.542c-2.297.453-4.216 2.024-5.112 4.188l-10.447 25.216c-.896 2.163-.651 4.632.653 6.577l7.316 10.91-16.673 16.674zm176.776 230.84-9.153 1.804c-2.298.453-4.217 2.025-5.113 4.189l-8.342 20.137c-.896 2.163-.651 4.632.653 6.577l5.198 7.751-11.675 11.675-7.75-5.197c-1.946-1.305-4.414-1.551-6.578-.653l-20.136 8.343c-2.164.896-3.735 2.815-4.188 5.112l-1.805 9.154h-16.512l-1.805-9.154c-.453-2.297-2.025-4.216-4.188-5.112l-20.137-8.343c-2.164-.897-4.633-.652-6.578.653l-7.75 5.197-11.675-11.675 5.197-7.751c1.305-1.945 1.55-4.414.653-6.577l-8.342-20.137c-.896-2.164-2.815-3.736-5.113-4.189l-9.153-1.804v-16.512l9.154-1.806c2.297-.453 4.216-2.024 5.112-4.188l8.342-20.136c.896-2.164.651-4.633-.653-6.578l-5.197-7.751 11.675-11.675 7.75 5.196c1.946 1.306 4.415 1.551 6.577.653l20.137-8.342c2.164-.896 3.735-2.815 4.188-5.113l1.805-9.153h16.512l1.805 9.154c.453 2.297 2.025 4.216 4.188 5.112l20.136 8.342c2.165.896 4.632.651 6.578-.653l7.75-5.196 11.676 11.675-5.198 7.751c-1.305 1.945-1.55 4.414-.653 6.578l8.342 20.136c.896 2.163 2.815 3.734 5.113 4.188l9.153 1.806zm-77.146-58.409c-27.654 0-50.153 22.499-50.153 50.153s22.499 50.153 50.153 50.153 50.153-22.499 50.153-50.153-22.499-50.153-50.153-50.153zm0 86.307c-19.935 0-36.153-16.218-36.153-36.153s16.218-36.153 36.153-36.153 36.153 16.218 36.153 36.153-16.218 36.153-36.153 36.153zm-371.859-36.153c0 27.654 22.499 50.153 50.153 50.153s50.153-22.499 50.153-50.153-22.499-50.153-50.153-50.153-50.153 22.499-50.153 50.153zm50.153-36.153c19.935 0 36.153 16.218 36.153 36.153s-16.218 36.153-36.153 36.153-36.153-16.218-36.153-36.153 16.218-36.153 36.153-36.153z"/></svg>