<svg id="Layer_1" enable-background="new 0 0 66 66" height="512" viewBox="0 0 66 66" width="512" xmlns="http://www.w3.org/2000/svg"><g><path d="m45.85 58.32c-.39 0-.71.32-.71.71v.78c0 1.27-1.03 2.29-2.29 2.29h-36.68c-1.26 0-2.29-1.03-2.29-2.29v-47.55c0-.98.8-1.78 1.78-1.78h9.13v.97c0 .69.55 1.24 1.23 1.24h16.98c.69 0 1.24-.56 1.24-1.24v-.97h9.12c.98 0 1.78.8 1.78 1.78v1.25c0 .39.32.71.71.71s.71-.32.71-.71v-1.25c0-1.76-1.43-3.2-3.2-3.2h-9.12v-1.03c0-.69-.56-1.24-1.24-1.24h-3.5c-.35-2.44-2.46-4.31-4.99-4.31s-4.64 1.88-4.99 4.31h-3.51c-.68 0-1.23.56-1.23 1.24v1.04h-9.13c-1.76 0-3.2 1.43-3.2 3.2v47.56c0 2.05 1.67 3.72 3.72 3.72h36.67c2.05 0 3.71-1.67 3.71-3.72v-.78c.01-.41-.31-.73-.7-.73zm-29.65-50.12h3.98c.39 0 .71-.32.71-.71.01-1.99 1.63-3.61 3.62-3.61s3.61 1.62 3.62 3.61c0 .39.32.71.71.71h3.98v3.07h-16.62z"/><path d="m46.56 41.06v-5.29c0-.39-.32-.71-.71-.71s-.71.32-.71.71v5.29c0 .39.32.71.71.71s.71-.32.71-.71z"/><path d="m23.42 7.19c.18 0 .36-.07.5-.21.16-.16.39-.25.58-.24.22 0 .42.09.58.24.28.28.73.28 1 0 .28-.28.28-.73 0-1-.42-.42-.99-.66-1.58-.66 0 0 0 0-.01 0-.6 0-1.16.23-1.58.66-.28.28-.28.73 0 1.01.15.13.33.2.51.2z"/><path d="m24.45 19.87c-5.06 0-9.17 4.12-9.17 9.19 0 2.08.67 4.04 1.95 5.66 1.75 2.24 4.39 3.53 7.23 3.53 2.85 0 5.49-1.29 7.23-3.52 1.28-1.62 1.96-3.57 1.96-5.66-.01-5.07-4.13-9.2-9.2-9.2zm0 16.95c-2.2 0-4.26-.93-5.73-2.54 1.47-1.62 3.52-2.54 5.73-2.54s4.27.93 5.73 2.54c-1.46 1.62-3.51 2.54-5.73 2.54zm2.02-7.48c-.48.62-1.22.98-2.01.98s-1.53-.36-2.01-.98c-.35-.45-.54-1-.54-1.58 0-1.41 1.15-2.56 2.56-2.56s2.56 1.15 2.56 2.56c-.01.58-.2 1.13-.56 1.58zm4.58 3.78c-1.1-1.14-2.45-1.95-3.95-2.4.17-.16.34-.31.49-.5.56-.7.85-1.55.85-2.46 0-2.2-1.79-3.98-3.98-3.98s-3.98 1.79-3.98 3.98c0 .89.3 1.76.84 2.45.15.19.32.35.49.5-1.49.45-2.85 1.26-3.95 2.4-.75-1.21-1.16-2.59-1.16-4.06 0-4.28 3.48-7.76 7.75-7.76 4.28 0 7.76 3.48 7.76 7.76.01 1.48-.41 2.85-1.16 4.07z"/><path d="m43.05 40.95c-.83-.83-2.23-.89-3.15-.19l-3.24-3.31c1.65-2.39 2.61-5.27 2.61-8.39 0-8.17-6.65-14.82-14.82-14.82s-14.82 6.65-14.82 14.82 6.65 14.82 14.82 14.82c3.1 0 5.97-.96 8.35-2.59l3.24 3.31c-.74.94-.69 2.3.17 3.16l8.84 8.94c.39.39.9.6 1.45.6s1.07-.21 1.45-.6l3.92-3.92c.39-.39.6-.9.6-1.45s-.21-1.06-.6-1.45zm-31.99-11.89c0-7.39 6.01-13.4 13.4-13.4s13.4 6.01 13.4 13.4-6.01 13.4-13.4 13.4-13.4-6.01-13.4-13.4zm24.73 9.53 3.08 3.15-1.84 1.84-3.08-3.15c.67-.56 1.28-1.18 1.84-1.84zm15.09 13.19-3.92 3.92c-.24.24-.66.24-.89 0l-8.84-8.94c-.38-.38-.38-.99 0-1.37l3.44-3.44c.18-.18.43-.28.69-.28s.5.1.68.28l8.83 8.93c.12.12.19.28.19.45s-.06.33-.18.45z"/><path d="m32.15 49.49h-22.79c-.39 0-.71.32-.71.71s.32.71.71.71h22.78c.39 0 .71-.32.71-.71s-.31-.71-.7-.71z"/><path d="m37.74 53.42h-28.38c-.39 0-.71.32-.71.71s.32.71.71.71h28.38c.39 0 .71-.32.71-.71s-.31-.71-.71-.71z"/><path d="m37.74 57.36h-28.38c-.39 0-.71.32-.71.71s.32.71.71.71h28.38c.39 0 .71-.32.71-.71s-.31-.71-.71-.71z"/><path d="m62.64 22.49-1.36-.44c-.19-.7-.47-1.37-.83-2l.65-1.27c.26-.51.16-1.13-.24-1.53l-.86-.86c-.4-.41-1.02-.5-1.53-.24l-1.27.65c-.63-.36-1.3-.64-2-.83l-.44-1.36c-.18-.55-.68-.91-1.25-.91h-1.22c-.57 0-1.08.37-1.25.91l-.44 1.36c-.71.19-1.38.47-2 .83l-1.27-.65c-.51-.26-1.12-.16-1.53.24l-.86.86c-.41.41-.5 1.02-.24 1.53l.65 1.27c-.36.62-.64 1.3-.83 2l-1.36.44c-.55.18-.91.68-.91 1.25v1.22c0 .57.37 1.08.91 1.25l1.35.44c.19.7.47 1.37.83 2l-.65 1.27c-.26.51-.16 1.12.24 1.53l.86.86c.4.4 1.02.5 1.53.24l1.27-.65c.64.36 1.31.64 2 .83l.44 1.35c.18.54.68.91 1.25.91h1.22c.57 0 1.08-.37 1.25-.91l.44-1.36c.71-.19 1.38-.47 2-.83l1.27.65c.51.26 1.13.16 1.53-.24l.86-.86c.41-.41.5-1.02.24-1.53l-.65-1.27c.36-.63.64-1.3.83-2l1.35-.44c.55-.18.91-.68.91-1.25v-1.22c.02-.57-.35-1.07-.89-1.24zm-.51 2.39-1.66.54c-.24.08-.42.28-.47.52-.19.83-.51 1.6-.96 2.3-.14.21-.15.48-.03.71l.8 1.56-.75.75-1.56-.8c-.22-.11-.49-.1-.71.03-.7.45-1.47.77-2.3.96-.25.06-.44.24-.52.47l-.54 1.66h-1.06l-.54-1.66c-.08-.24-.28-.42-.52-.48-.81-.18-1.58-.5-2.3-.95-.21-.13-.48-.15-.7-.03l-1.55.79-.76-.76.79-1.55c.11-.22.1-.49-.03-.7-.45-.72-.78-1.49-.95-2.3-.05-.25-.23-.45-.48-.52l-1.66-.54v-1.06l1.66-.54c.24-.08.42-.28.47-.52.19-.83.51-1.6.96-2.3.14-.21.15-.48.03-.71l-.79-1.55.75-.75 1.56.8c.22.12.5.1.71-.03.7-.45 1.47-.77 2.3-.96.25-.06.44-.24.52-.47l.54-1.66h1.06l.54 1.66c.08.24.28.42.52.48.82.18 1.59.5 2.29.95.21.14.48.15.71.03l1.56-.8.75.75-.81 1.55c-.12.23-.1.49.03.71.45.7.77 1.47.95 2.29.05.25.24.45.48.52l1.66.54v1.07z"/><path d="m52.9 19.96c-2.42 0-4.39 1.97-4.39 4.38 0 2.42 1.97 4.39 4.39 4.39s4.38-1.97 4.38-4.39c.01-2.41-1.96-4.38-4.38-4.38zm0 7.35c-1.64 0-2.97-1.33-2.97-2.97 0-1.63 1.33-2.96 2.97-2.96 1.63 0 2.96 1.33 2.96 2.96.01 1.64-1.32 2.97-2.96 2.97z"/></g></svg>