<svg version="1.1" id="Capa_1" xmlns="http://www.w3.org/2000/svg" xmlns:xlink="http://www.w3.org/1999/xlink" x="0px" y="0px" viewBox="0 0 512 512" style="enable-background:new 0 0 512 512;" xml:space="preserve">
<g>
	<path style="fill:none;stroke:#000000;stroke-width:15;stroke-linecap:round;stroke-linejoin:round;stroke-miterlimit:10;" d="&#10;&#9;&#9;M227.638,7.5v17.816c0,9.676,7.844,17.52,17.52,17.52h21.684c9.676,0,17.52-7.844,17.52-17.52V7.5H227.638z"/>
	<path style="fill:none;stroke:#000000;stroke-width:15;stroke-linecap:round;stroke-linejoin:round;stroke-miterlimit:10;" d="&#10;&#9;&#9;M407,426.56v49.13c0,15.91-12.9,28.81-28.81,28.81H133.81c-15.91,0-28.81-12.9-28.81-28.81V156.35"/>
	<path style="fill:none;stroke:#000000;stroke-width:15;stroke-linecap:round;stroke-linejoin:round;stroke-miterlimit:10;" d="&#10;&#9;&#9;M105,87.41v-51.1C105,20.4,117.9,7.5,133.81,7.5h30.36"/>
	<path style="fill:none;stroke:#000000;stroke-width:15;stroke-linecap:round;stroke-linejoin:round;stroke-miterlimit:10;" d="&#10;&#9;&#9;M199.17,7.5h179.02C394.1,7.5,407,20.4,407,36.31v51.1"/>
	
		<line style="fill:none;stroke:#000000;stroke-width:15;stroke-linecap:round;stroke-linejoin:round;stroke-miterlimit:10;" x1="407" y1="391.56" x2="407" y2="156.35"/>
	
		<line style="fill:none;stroke:#000000;stroke-width:15;stroke-linecap:round;stroke-linejoin:round;stroke-miterlimit:10;" x1="407" y1="469.164" x2="105" y2="469.164"/>
	<g>
		<path style="fill:none;stroke:#000000;stroke-width:15;stroke-linecap:round;stroke-linejoin:round;stroke-miterlimit:10;" d="&#10;&#9;&#9;&#9;M328,327.76c3.37,2.6,7.6,4.14,12.18,4.14c11.07,0,20.04-8.97,20.04-20.03s-8.97-20.03-20.04-20.03c-4.58,0-8.81,1.54-12.18,4.14"/>
		<path style="fill:none;stroke:#000000;stroke-width:15;stroke-linecap:round;stroke-linejoin:round;stroke-miterlimit:10;" d="&#10;&#9;&#9;&#9;M184,327.76c-3.37,2.6-7.6,4.14-12.18,4.14c-11.07,0-20.04-8.97-20.04-20.03s8.97-20.03,20.04-20.03c4.58,0,8.81,1.54,12.18,4.14"/>
	</g>
	<path style="fill:none;stroke:#000000;stroke-width:15;stroke-linecap:round;stroke-linejoin:round;stroke-miterlimit:10;" d="&#10;&#9;&#9;M184,234.953v48.01h144v-48.01c0-5.412-4.387-9.799-9.799-9.799H193.799C188.387,225.154,184,229.541,184,234.953z"/>
	<g>
		
			<line style="fill:none;stroke:#000000;stroke-width:15;stroke-linecap:round;stroke-linejoin:round;stroke-miterlimit:10;" x1="218.112" y1="254.059" x2="221.232" y2="254.059"/>
		
			<line style="fill:none;stroke:#000000;stroke-width:15;stroke-linecap:round;stroke-linejoin:round;stroke-miterlimit:10;" x1="256.446" y1="254.059" x2="293.888" y2="254.059"/>
	</g>
	
		<line style="fill:none;stroke:#000000;stroke-width:15;stroke-linecap:round;stroke-linejoin:round;stroke-miterlimit:10;" x1="328" y1="340.773" x2="328" y2="282.964"/>
	
		<line style="fill:none;stroke:#000000;stroke-width:15;stroke-linecap:round;stroke-linejoin:round;stroke-miterlimit:10;" x1="184" y1="282.964" x2="184" y2="340.773"/>
	<g>
		
			<line style="fill:none;stroke:#000000;stroke-width:15;stroke-linecap:round;stroke-linejoin:round;stroke-miterlimit:10;" x1="218.112" y1="311.868" x2="221.232" y2="311.868"/>
		
			<line style="fill:none;stroke:#000000;stroke-width:15;stroke-linecap:round;stroke-linejoin:round;stroke-miterlimit:10;" x1="256.446" y1="311.868" x2="293.888" y2="311.868"/>
	</g>
	<path style="fill:none;stroke:#000000;stroke-width:15;stroke-linecap:round;stroke-linejoin:round;stroke-miterlimit:10;" d="&#10;&#9;&#9;M184,340.773v48.01c0,5.412,4.387,9.799,9.799,9.799h124.402c5.412,0,9.799-4.387,9.799-9.799v-48.01H184z"/>
	<g>
		
			<line style="fill:none;stroke:#000000;stroke-width:15;stroke-linecap:round;stroke-linejoin:round;stroke-miterlimit:10;" x1="218.112" y1="369.678" x2="221.232" y2="369.678"/>
		
			<line style="fill:none;stroke:#000000;stroke-width:15;stroke-linecap:round;stroke-linejoin:round;stroke-miterlimit:10;" x1="256.446" y1="369.678" x2="293.888" y2="369.678"/>
	</g>
	<g>
		<path style="fill:none;stroke:#000000;stroke-width:15;stroke-linecap:round;stroke-linejoin:round;stroke-miterlimit:10;" d="&#10;&#9;&#9;&#9;M296.448,132.053c-10.304-11.16-24.623-18.07-40.448-18.07s-30.145,6.91-40.448,18.07"/>
		<path style="fill:none;stroke:#000000;stroke-width:15;stroke-linecap:round;stroke-linejoin:round;stroke-miterlimit:10;" d="&#10;&#9;&#9;&#9;M279.873,153.105c-6.556-5.561-14.855-8.876-23.873-8.876c-9.018,0-17.317,3.314-23.873,8.876"/>
		<path style="fill:none;stroke:#000000;stroke-width:15;stroke-linecap:round;stroke-linejoin:round;stroke-miterlimit:10;" d="&#10;&#9;&#9;&#9;M264.135,175.866c-2.423-1.8-5.194-2.818-8.135-2.818c-2.941,0-5.712,1.018-8.135,2.818"/>
	</g>
	<g>
		<g>
			
				<line style="fill:none;stroke:#000000;stroke-width:15;stroke-linecap:round;stroke-linejoin:round;stroke-miterlimit:10;" x1="394.408" y1="311.868" x2="402.19" y2="311.868"/>
			
				<line style="fill:none;stroke:#000000;stroke-width:15;stroke-linecap:round;stroke-linejoin:round;stroke-miterlimit:10;" x1="429.613" y1="311.868" x2="437.395" y2="311.868"/>
		</g>
		<g>
			
				<line style="fill:none;stroke:#000000;stroke-width:15;stroke-linecap:round;stroke-linejoin:round;stroke-miterlimit:10;" x1="442.225" y1="198.471" x2="442.225" y2="206.253"/>
			
				<line style="fill:none;stroke:#000000;stroke-width:15;stroke-linecap:round;stroke-linejoin:round;stroke-miterlimit:10;" x1="442.225" y1="233.676" x2="442.225" y2="241.458"/>
			
				<line style="fill:none;stroke:#000000;stroke-width:15;stroke-linecap:round;stroke-linejoin:round;stroke-miterlimit:10;" x1="442.225" y1="268.881" x2="442.225" y2="276.663"/>
		</g>
		<g>
			
				<line style="fill:none;stroke:#000000;stroke-width:15;stroke-linecap:round;stroke-linejoin:round;stroke-miterlimit:10;" x1="117.592" y1="311.868" x2="109.81" y2="311.868"/>
			
				<line style="fill:none;stroke:#000000;stroke-width:15;stroke-linecap:round;stroke-linejoin:round;stroke-miterlimit:10;" x1="82.387" y1="311.868" x2="74.605" y2="311.868"/>
		</g>
		<g>
			
				<line style="fill:none;stroke:#000000;stroke-width:15;stroke-linecap:round;stroke-linejoin:round;stroke-miterlimit:10;" x1="69.775" y1="198.471" x2="69.775" y2="206.253"/>
			
				<line style="fill:none;stroke:#000000;stroke-width:15;stroke-linecap:round;stroke-linejoin:round;stroke-miterlimit:10;" x1="69.775" y1="233.676" x2="69.775" y2="241.458"/>
			
				<line style="fill:none;stroke:#000000;stroke-width:15;stroke-linecap:round;stroke-linejoin:round;stroke-miterlimit:10;" x1="69.775" y1="268.881" x2="69.775" y2="276.663"/>
		</g>
	</g>
	<g>
		<path style="fill:none;stroke:#000000;stroke-width:15;stroke-linecap:round;stroke-linejoin:round;stroke-miterlimit:10;" d="&#10;&#9;&#9;&#9;M475.138,98.694c-2.183-0.417-3.966-2.042-4.512-4.196c-3.757-14.812-17.172-25.773-33.153-25.773&#10;&#9;&#9;&#9;c-15.981,0-29.396,10.96-33.153,25.773c-0.546,2.154-2.33,3.779-4.512,4.196c-13.466,2.571-23.638,14.423-23.601,28.646&#10;&#9;&#9;&#9;c0.042,16.125,13.508,29.013,29.633,29.013h63.267c16.125,0,29.591-12.888,29.633-29.013&#10;&#9;&#9;&#9;C498.776,113.117,488.604,101.265,475.138,98.694z"/>
		<path style="fill:none;stroke:#000000;stroke-width:15;stroke-linecap:round;stroke-linejoin:round;stroke-miterlimit:10;" d="&#10;&#9;&#9;&#9;M112.192,98.694c-2.183-0.417-3.966-2.042-4.512-4.196c-3.757-14.812-17.172-25.773-33.153-25.773&#10;&#9;&#9;&#9;c-15.981,0-29.396,10.96-33.153,25.773c-0.546,2.154-2.33,3.779-4.512,4.196c-13.466,2.571-23.638,14.423-23.601,28.646&#10;&#9;&#9;&#9;c0.042,16.125,13.508,29.013,29.633,29.013h63.267c16.125,0,29.591-12.888,29.633-29.013&#10;&#9;&#9;&#9;C135.831,113.117,125.658,101.265,112.192,98.694z"/>
	</g>
</g>
<g>
</g>
<g>
</g>
<g>
</g>
<g>
</g>
<g>
</g>
<g>
</g>
<g>
</g>
<g>
</g>
<g>
</g>
<g>
</g>
<g>
</g>
<g>
</g>
<g>
</g>
<g>
</g>
<g>
</g>
</svg>