<?xml version="1.0" encoding="UTF-8"?>
<svg xmlns="http://www.w3.org/2000/svg" id="Layer_1" data-name="Layer 1" viewBox="0 0 64 64" width="512" height="512"><path d="M61.713,40.137c.445-4.189-.37-7.544-2.514-10.179l1.645-2.016a1,1,0,0,0-.954-1.616l-3.914.715-1.412-3.422A1,1,0,0,0,53.656,23a.958.958,0,0,0-.928.59l-.972,2.163a13.8,13.8,0,0,0-12.173.493c-5.524,2.757-7.974,7.431-7.3,13.894A2,2,0,0,0,31,42v9a2,2,0,0,0,2,2h2.2C36.762,58.925,41.51,63,47,63s10.238-4.075,11.8-10H61a2,2,0,0,0,2-2V42A2,2,0,0,0,61.713,40.137Zm-21.235-12.1c6.331-3.169,11-.188,11.2-.062a1,1,0,0,0,1.467-.422l.459-1.022.835,2.023a1,1,0,0,0,1.1.6l2.038-.372-.462.566a1,1,0,0,0,.046,1.318c2.16,2.293,2.987,5.361,2.554,9.334H58.46v-.66a1,1,0,0,0-.8-.981c-3.941-.786-7.233-4.834-7.266-4.875a1,1,0,0,0-1.709.255c-1.1,2.751-8.077,4.284-12.218,4.6a1,1,0,0,0-.923,1V40H34.275C33.648,34.273,35.629,30.455,40.478,28.034ZM56.107,40H39.416c3.2-.5,8.168-1.667,10.338-4.236A16.79,16.79,0,0,0,56.107,40ZM47,61c-4.413,0-8.268-3.234-9.726-8H42.52a1.988,1.988,0,0,0,1.561-.751L47,48.6l2.919,3.649A1.99,1.99,0,0,0,51.48,53h5.246C55.268,57.766,51.413,61,47,61ZM61,51H51.48l-2.918-3.648a2,2,0,0,0-3.124,0L42.52,51H33V42H61Z"/><path d="M47,53a3,3,0,1,0,3,3A3,3,0,0,0,47,53Zm0,4a1,1,0,1,1,1-1A1,1,0,0,1,47,57Z"/><path d="M4,27H16.532l9.7,11.64a1,1,0,0,0,1.738-.883L25.281,27H31a3,3,0,0,0,3-3V4a3,3,0,0,0-3-3H4A3,3,0,0,0,1,4V24A3,3,0,0,0,4,27ZM3,4A1,1,0,0,1,4,3H31a1,1,0,0,1,1,1V24a1,1,0,0,1-1,1H24a1,1,0,0,0-.97,1.243L24.97,34l-7.2-8.641A1,1,0,0,0,17,25H4a1,1,0,0,1-1-1Z"/><path d="M6,20.6H29a1,1,0,0,0,.84-1.542L22.753,8.087a1.539,1.539,0,0,0-2.506,0L15.491,15.45,12.75,11.244a1.538,1.538,0,0,0-2.5,0L5.162,19.055A1,1,0,0,0,6,20.6ZM21.5,9.833,27.164,18.6H15.836Zm-10,3.157,2.8,4.3-.846,1.31H7.845Z"/></svg>
