<svg id="Layer_1" enable-background="new 0 0 128 128" viewBox="0 0 128 128" xmlns="http://www.w3.org/2000/svg"><path d="m16 32c8.8358841 0 16-7.1636009 16-16 0-8.8364296-7.1641159-16-16-16-8.8359151 0-16 7.1635699-16 16 0 8.8363991 7.1640849 16 16 16zm-6.9873152-6.2637005c.1317997-3.2870998 2.6893997-5.7362995 6.0625-5.7362995h1.8466997c3.3740005 0 5.9335995 2.4491997 6.0653992 5.7362995-1.9706993 1.4185009-4.3799 2.2637005-6.9872837 2.2637005-2.6074152 0-5.0166149-.8451996-6.9873152-2.2637005zm6.9873152-10.7362995c-1.1025152 0-2-.8970003-2-2s.8974848-2 2-2c1.1024837 0 2 .8970003 2 2s-.8975163 2-2 2zm0-11c6.6171837 0 12 5.3832998 12 12 0 2.2651005-.6426163 4.3784008-1.7383156 6.1879997-1.0156002-2.5112-3.0175991-4.4829006-5.5566006-5.4766006.8086014-1.022399 1.2949162-2.3099995 1.2949162-3.7113991 0-3.3085899-2.6914158-6-6-6-3.3086157 0-6 2.6914101-6 6 0 1.4013996.4862852 2.6885004 1.2938852 3.7108994-2.5380001.9937-4.5400004 2.9654007-5.5556002 5.4771004-1.0957002-1.8101006-1.738285-3.9228993-1.738285-6.1879998 0-6.6167002 5.3827848-12 12-12z"/><path d="m112 32c8.8358841 0 16-7.1636009 16-16 0-8.8364296-7.1641159-16-16-16-8.8359146 0-16 7.1635699-16 16 0 8.8363991 7.1640854 16 16 16zm-6.9873199-6.2637005c.1318054-3.2870998 2.6893997-5.7362995 6.0625-5.7362995h1.8467026c3.3740005 0 5.9336014 2.4491997 6.0653992 5.7362995-1.9707032 1.4185009-4.3798982 2.2637005-6.9872819 2.2637005-2.6074142 0-5.0166168-.8451996-6.9873199-2.2637005zm6.9873199-10.7362995c-1.1025162 0-2-.8970003-2-2s.8974838-2 2-2c1.1024857 0 2 .8970003 2 2s-.8975143 2-2 2zm0-11c6.6171799 0 12 5.3832998 12 12 0 2.2651005-.6426163 4.3784008-1.7383194 6.1879997-1.0156021-2.5112-3.017601-4.4829006-5.5565948-5.4766006.8085937-1.022399 1.2949142-2.3099995 1.2949142-3.7113991 0-3.3085899-2.6914215-6-6-6-3.3086166 0-6 2.6914101-6 6 0 1.4013996.4862823 2.6885004 1.2938843 3.7108994-2.538002.9937-4.5400009 2.9654007-5.555603 5.4771004-1.0956955-1.8101006-1.7382813-3.9228993-1.7382813-6.1879998 0-6.6167002 5.382782-12 12-12z"/><path d="m112 96c-8.8359146 0-16 7.1635971-16 16s7.1640854 16 16 16c8.8358841 0 16-7.1635971 16-16s-7.1641159-16-16-16zm-6.9873199 25.7362976c.1318054-3.2870941 2.6893997-5.7362976 6.0625-5.7362976h1.8467026c3.3740005 0 5.9336014 2.4492035 6.0653992 5.7362976-1.9707032 1.4185028-4.3798982 2.2637024-6.9872819 2.2637024-2.6074142 0-5.0166168-.8451996-6.9873199-2.2637024zm6.9873199-10.7362976c-1.1025162 0-2-.8970032-2-2s.8974838-2 2-2c1.1024857 0 2 .8970032 2 2s-.8975143 2-2 2zm10.2616806 7.1880035c-1.0156021-2.5112-3.017601-4.4829025-5.5565948-5.4766006.8085937-1.0223999 1.2949142-2.3100052 1.2949142-3.7114029 0-3.3086014-2.6914215-6-6-6-3.3086166 0-6 2.6913986-6 6 0 1.4013977.4862823 2.6884995 1.2938843 3.7108994-2.538002.9936981-4.5400009 2.9654007-5.555603 5.4771042-1.0956955-1.8101044-1.7382813-3.922905-1.7382813-6.1880036 0-6.6166992 5.382782-12 12-12 6.6171799 0 12 5.3833008 12 12 0 2.2650986-.6426163 4.3784027-1.7383194 6.1880035z"/><path d="m16 96c-8.8359146 0-16 7.1635971-16 16s7.1640849 16 16 16c8.8358841 0 16-7.1635971 16-16s-7.1641159-16-16-16zm-6.9873152 25.7362976c.1317997-3.2870941 2.6893997-5.7362976 6.0625-5.7362976h1.8466997c3.3740005 0 5.9335995 2.4492035 6.0653992 5.7362976-1.9706993 1.4185028-4.3799 2.2637024-6.9872837 2.2637024-2.6074152 0-5.0166149-.8451996-6.9873152-2.2637024zm6.9873152-10.7362976c-1.1025152 0-2-.8970032-2-2s.8974848-2 2-2c1.1024837 0 2 .8970032 2 2s-.8975163 2-2 2zm10.2616844 7.1880035c-1.0156002-2.5112-3.0175991-4.4829025-5.5566006-5.4766006.8086014-1.0223999 1.2949162-2.3100052 1.2949162-3.7114029 0-3.3086014-2.6914158-6-6-6-3.3086157 0-6 2.6913986-6 6 0 1.4013977.4862852 2.6884995 1.2938852 3.7108994-2.5380001.9936981-4.5400004 2.9654007-5.5556002 5.4771042-1.0957002-1.8101044-1.738285-3.922905-1.738285-6.1880036 0-6.6166992 5.3827848-12 12-12 6.6171837 0 12 5.3833008 12 12 0 2.2650986-.6426163 4.3784027-1.7383156 6.1880035z"/><path d="m92.1835861 50.8349991-6.0615005-4.4477997c-.892601-.653801-2.1436005-.4613991-2.7950058.4302025-.6532974.8905983-.4608994 2.1420975.4297028 2.7953987l.5273971.3871994h-22.2841797c-1.1045151 0-2 .8955002-2 2v22h-11.1807175c-.8661995-2.1513977-2.982399-3.6768036-5.4540977-3.6768036-3.2411842 0-5.8789024 2.6192017-5.8789024 5.8384018-.0000001 3.2192993 2.6377181 5.8384018 5.8789024 5.8384018 2.5938148 0 4.7958984-1.6797028 5.5742989-4h13.0605163c1.1044846 0 2-.8955002 2-2v-22h21.5009995l-1.7442169 1.278801c-.8906021.6532974-1.0830002 1.9048004-.4297028 2.7953987.3917007.5346985.9981003.8174019 1.6143036.8174019.410202 0 .8241959-.1260033 1.1807022-.3872032l6.0604935-4.4442978c.5137023-.3764992.8174209-.9751015.8174209-1.6123009 0-.6367989-.3027191-1.2359009-.8164139-1.6128006zm-48.8184013 27.1650009c-1.0361023 0-1.8789024-.8246994-1.8789024-1.8384018 0-1.0136948.8428001-1.8384018 1.8789024-1.8384018 1.0351982 0 1.8769989.824707 1.8769989 1.8384018 0 1.0137024-.8418007 1.8384018-1.8769989 1.8384018z"/><path d="m79.5780792 77.2832031c.3916016.3955002.9063034.5932999 1.4219208.5932999.5087814 0 1.0165863-.1929016 1.4071808-.5786057l2.5928192-2.5659942 2.5927811 2.5659943c.3906021.3861999.8983993.5786056 1.4072189.5786056.5155792 0 1.0302811-.1977997 1.4218826-.5932999.7762985-.785202.7705002-2.0513-.0147018-2.8281021l-2.5634003-2.5371017 2.5634003-2.5375977c.785202-.7769012.7910004-2.0429993.0147018-2.8282013-.7773972-.7851028-2.0419998-.7910004-2.8291016-.0146027l-2.592781 2.5659028-2.5928192-2.5659027c-.7860947-.777298-2.0507965-.7705002-2.8291016.0146027-.7762985.785202-.7704926 2.0513.0147018 2.8282013l2.5634995 2.5375977-2.5634995 2.5371017c-.7851943.776802-.7910003 2.0429-.0147018 2.828102z"/><path d="m41 65c0 1.1044998.8954849 2 2 2 1.1044846 0 2-.8955002 2-2v-4h4c1.1044846 0 2-.8955002 2-2s-.8955154-2-2-2h-4v-4c0-1.1044998-.8955154-2-2-2-1.1045151 0-2 .8955002-2 2v4h-4c-1.1045151 0-2 .8955002-2 2s.8954849 2 2 2h4z"/><path d="m108.9520798 66.089798c.0313034-.6922989.0479202-1.3890991.0479202-2.089798l-.0009995-.3051987c-.0117188-1.0976028-.9043198-1.9794998-2-1.9794998-.0068207 0-.0136185 0-.0205154 0-1.1044846.0117989-1.9912033.9160004-1.9794846 2.0205002l.0009995.2641983c0 .6391983-.0146179 1.2753983-.0439148 1.9072037-.0508041 1.1034927.8036957 2.0385971 1.9061966 2.0893936.0313034.0014038.0625.0018997.0938034.0018997 1.0625 0 1.947197-.8363953 1.9959946-1.908699z"/><path d="m105.3495789 77.8427963c.8701019 0 1.6709061-.5722961 1.9219055-1.4506989.1913986-.6689987.3671951-1.3442001.527298-2.0258942.2538986-1.0752029-.4121017-2.1518021-1.4872971-2.405304-1.073204-.2528992-2.1523056.4125977-2.4052048 1.4883041-.1464996.6200943-.3067017 1.2348938-.4804993 1.8432999-.3036957 1.0619965.3105011 2.1688995 1.3730011 2.4725952.1836014.0528032.369217.0776979.5507966.0776979z"/><path d="m96.4570007 38.9458008c.3945847.5107002.9863815.7777977 1.5839996.7777977.4277802 0 .8573837-.1357002 1.2216797-.4169998.8740005-.6752968 1.035202-1.9310989.360321-2.8050995-.4267197-.5527992-.8662186-1.094799-1.3183212-1.6259995-.7157974-.841301-1.9785004-.9434013-2.8192978-.2276001-.8417969.7159004-.9433823 1.9780998-.2276001 2.8194008.4111024.4833985.8115006.9765015 1.1992188 1.4785004z"/><path d="m70.9130859 23.5800991c.6289139.1069012 1.2529144.2280006 1.8721008.3628006.1434937.0312004.2860947.0464001.4276962.0464001.919899 0 1.7480011-.6387005 1.9521179-1.5742989.2353821-1.0796013-.4492188-2.1450005-1.5283203-2.3803005-.6796799-.1485004-1.3641968-.2812996-2.0536804-.3980007-1.0976181-.1903992-2.1221161.5484009-2.3066177 1.6371994-.1846008 1.0889015.5477982 2.1216011 1.6367035 2.3062z"/><path d="m61.285183 23.0839996c.0419006 0 .0839005-.0009995.1259003-.0039005.631916-.0390987 1.2666016-.0644989 1.9062996-.0746994 1.1044998-.0175991 1.9852982-.9272995 1.967804-2.0317993-.017601-1.1040001-.9004059-2.0122013-2.0323029-1.9673004-.7001991.0112991-1.3973999.0386009-2.0898018.0816002-1.1026001.0683994-1.9403992 1.0170994-1.8720818 2.1196003.0653839 1.0606002.9462814 1.8764991 1.9941826 1.8764991z"/><path d="m80.0380859 26.2553997c.5869141.2495003 1.1660004.5121994 1.7391968.7884998.2792969.1348.5752029.198801.8672028.198801.7431946 0 1.4580002-.4169998 1.8027954-1.1319008.4794998-.9951.0615005-2.1903992-.9336014-2.6704006-.6279984-.3027-1.2656784-.5917988-1.9091949-.8656998-1.0194855-.4335995-2.1903992.0415001-2.6240005 1.0576-.4317018 1.0161001.0410003 2.1909009 1.0576018 2.6231004z"/><path d="m100.5224838 86.7935028c.3105164.1747971.6473999.2577972.9795151.2577972.6991806 0 1.3778839-.3672028 1.7450867-1.0190964.3417969-.608902.6709137-1.2260056.9842987-1.8515015.4961014-.9873047.0976944-2.1894989-.8896027-2.6851044-.9901962-.4980011-2.1903992-.0966949-2.6846008.8900986-.2860947.5689011-.5839996 1.1304016-.8964996 1.6836014-.5410004.962906-.2001954 2.1822053.7618026 2.7242051z"/><path d="m92.3290863 29.0352001c-.5410004-.4395008-1.092804-.8663006-1.655304-1.2807999-.8906021-.6562996-2.1416016-.466301-2.7958984.4228001-.6562042.8892002-.4668045 2.1411991.4228973 2.7968998.5117035.3775005 1.0146027.7670994 1.5088043 1.1675014.3700943.3008003.8154144.4468002 1.2587967.4468002.5820007 0 1.1591034-.2530022 1.5537033-.7398014.6962968-.8579005.5653992-2.1175994-.2929992-2.8134002z"/><path d="m103.8437805 54.2881012c.1493988.6147003.2851028 1.2347984.4062195 1.8597984.1854858.9561005 1.0224838 1.6207008 1.9618835 1.6207008.1259995 0 .2538986-.0122986.381897-.0372009 1.0839005-.2094002 1.7938995-1.2587013 1.5839005-2.3432007-.1327972-.6875-.282196-1.3700981-.447197-2.0463982-.2617035-1.0741997-1.3467026-1.7299995-2.4169998-1.4701996-1.0733032.2616998-1.7314835 1.3432008-1.4697037 2.4165002z"/><path d="m34.578083 92.5551987c-.7705002-.7934952-2.0360832-.8115005-2.828083-.0429993-.7929993.7695007-.8115158 2.0356979-.0429993 2.8281021.4853821.5004959.9833832.9897995 1.4921837 1.4673004.3866997.3622971.8778992.5419998 1.3692017.5419998.5321999 0 1.0643997-.2118988 1.4579964-.6313019.7558022-.8051987.7158012-2.0708008-.0888977-2.8266983-.4639016-.435501-.9169999-.8809051-1.3594018-1.3364028z"/><path d="m98.4911804 92.9042969c.7099991-.8456955.5996017-2.107399-.2461014-2.8173981-.8456955-.7108994-2.1083984-.5996017-2.8182983.2461014-.4091949.4872971-.8291016.9653015-1.2597809 1.4330978-.7481155.8130035-.6953201 2.0781021.1171799 2.8262024.3847046.3535004.8701019.5282974 1.3535004.5282974.5400009 0 1.0781021-.2173004 1.472702-.6455002.4716186-.5126953.9326172-1.0365981 1.3807983-1.5708007z"/><path d="m43.5790825 99.560997c-.5517998-.3168945-1.0946999-.6468964-1.6298981-.9891968-.9305992-.5967026-2.1669998-.3252029-2.7626991.6063995-.5957031.9301987-.3241997 2.1675034.606514 2.7627029.587883.3764954 1.1854858.7388 1.7919998 1.0878983.3143845.1807022.6571846.2666016.9950867.2666016.6923981 0 1.3661995-.3603058 1.7352982-1.0034027.5508002-.9574966.2206992-2.1801987-.7363015-2.7310028z"/><path d="m104.0995789 43.5581017c-.5018997-.9834023-1.7050934-1.3760033-2.6903992-.8721008-.9833984.5019989-1.3740005 1.7066002-.8721008 2.6904984.2871017.5639.5635071 1.1352005.8262024 1.7143021.3339996.7383003 1.0615005 1.1747971 1.8222046 1.1747971.2763977 0 .556694-.0575981.8251953-.1791992 1.0058975-.4559975 1.4512024-1.641098.9952011-2.6469002-.2881012-.6357996-.5898819-1.2626993-.9063034-1.8813974z"/><path d="m19.5634842 56.8623009c-.1093998.6860008-.2040997 1.3778992-.2812996 2.0741997-.1229992 1.0976982.6679993 2.0868988 1.7656994 2.2094994.0751152.0083008.150301.0121994.2245998.0121994 1.0048008 0 1.8711014-.7558975 1.9843006-1.7782974.0713005-.6338005.1562996-1.2632027.2558994-1.8877029.1748009-1.0907974-.5692997-2.1161995-1.6591988-2.2901001-1.0976008-.1747972-2.1172007.5699004-2.2900008 1.6602019z"/><path d="m22.8495846 51.3246994c.2236004.0806007.4521999.1187019.6767998.1187019.8192997 0 1.5888004-.5079002 1.8817997-1.3238029.2158165-.6000977.4463005-1.1942978.6884995-1.7811966.4228001-1.0209999-.0625-2.1905022-1.0829983-2.6128006-1.0215015-.4243011-2.1905003.0625-2.6123009 1.0834999-.2675991.6455002-.5195999 1.2972984-.7569008 1.9570007-.3739987 1.0390969.1660003 2.1850968 1.205101 2.5585976z"/><path d="m19.3163853 69.3682022c.1210995 1.0170975.9843998 1.764595 1.9833984 1.764595.0791016 0 .1582165-.0043945.2383003-.0140991 1.0967007-.1298981 1.8808002-1.1245956 1.7510014-2.221199-.075201-.6294022-.1358013-1.2626953-.1817017-1.9003983-.0809994-1.1016006-1.0565987-1.9361038-2.1405983-1.8487015-1.1016006.0805969-1.9297009 1.0391006-1.8496017 2.1407013.0517006.697197.1182003 1.3910981.1992016 2.0791016z"/><path d="m26.4667835 88.8314972c.3848.5811005 1.0205002.8955994 1.6689014.8955994.3788986 0 .7626991-.1074982 1.1026001-.3325958.9208984-.6102982 1.1728001-1.8515015.5625-2.771904-.3506012-.5292969-.6885014-1.0673981-1.0156002-1.6132965-.5684013-.9473038-1.7950001-1.2554016-2.7441845-.6869965-.947216.5677948-1.2549152 1.7963943-.6875153 2.7435989.3583985.5976944.7295152 1.1865006 1.1132985 1.7655945z"/><path d="m21.75 79.5229034c.297884.8090973 1.0624847 1.3100967 1.8770008 1.3100967.2293835 0 .4627838-.0394974.6903839-.123497 1.0361004-.3814011 1.5683002-1.5307999 1.1865005-2.5674057-.2187004-.594696-.4238014-1.1962967-.6152-1.8036957-.3330002-1.0541992-1.4610004-1.6352997-2.5098-1.3051987-1.0527.3324966-1.637701 1.4561005-1.3047009 2.5093002.2110006.667.4356004 1.3270952.6758157 1.9804002z"/><path d="m61.6864853 104.9355011c-.6377029-.0351028-1.2704849-.0848999-1.9004021-.1493988-1.1132011-.1084061-2.0810013.6879959-2.1922989 1.7866974-.1124001 1.0990982.6875 2.0804977 1.7860985 2.1928024.6903992.0702972 1.3857002.125 2.0858994.1641006.0371017.0018997.0752182.0028992.1123009.0028992 1.0536995 0 1.9356003-.8242035 1.9951019-1.8890991.0615997-1.1031036-.7831841-2.046402-1.8866997-2.1080017z"/><path d="m30.2802849 37.2383003c-.897501-.6450005-2.1455002-.4429016-2.7919998.4530983-.4082012.565403-.8028011 1.1401024-1.1856003 1.7251015-.6035004.9248009-.3436852 2.1641006.5811005 2.7681007.3378983.2206993.7167988.3256989 1.0917988.3256989.6522999 0 1.2930012-.3189011 1.6767006-.9062996.3477154-.5331993.7089996-1.0581017 1.0800991-1.5737.6464996-.8959999.4434013-2.1459999-.4520989-2.7919998z"/><path d="m71.1845856 104.3730011c-.6231003.1103973-1.2509995.2061005-1.8828049.2872009-1.0956955.141098-1.8702011 1.1435013-1.7285995 2.2391968.1299057 1.0088043.990303 1.7445984 1.9804993 1.7445984.0858994 0 .1719055-.0052948.2578049-.0165939.6962967-.0893021 1.3866959-.1948013 2.0702972-.3159027 1.0878983-.1923981 1.8134995-1.2304001 1.6211014-2.3178024-.1923982-1.0873948-1.2256013-1.8168946-2.3182984-1.6206971z"/><path d="m34.3642845 34.8442001c.4961014 0 .9920998-.1831017 1.3788986-.5517006.4598999-.4379997.9297028-.8647995 1.4101028-1.2807999.8349991-.7230988.9257965-1.9862995.202198-2.8213005-.7226982-.8343983-1.9864006-.9257984-2.8213005-.2020988-.527401.4569988-1.0439987.9267006-1.5487976 1.4076996-.7999001.7616997-.8311005 2.0278015-.0693855 2.8275986.3935853.4126015.9198838.6206016 1.4482842.6206016z"/><path d="m52.3173828 103.3119965c-.6103821-.1810989-1.2148972-.3759995-1.8134995-.5844955-1.0458832-.3623047-2.1836014.1879959-2.5468826 1.2310028-.3632164 1.0429993.1874847 2.1830978 1.230484 2.5463943.6571999.2290039 1.3223.4432983 1.9931984.6421051.1893997.0560989.3808022.0830002.5693169.0830002.8622856 0 1.6591835-.5625 1.9169998-1.432106.3134842-1.0590974-.2900009-2.1718979-1.349617-2.4859009z"/><path d="m42.337883 28.8486004c.3428001 0 .6893997-.0883007 1.0068016-.2734013.5479012-.3202991 1.1026001-.6273994 1.6660004-.9223995.9776001-.5126991 1.3554993-1.721199.8428001-2.6996994-.5127029-.9780006-1.7187004-1.3579006-2.7002029-.8432007-.6161995.3232002-1.2255974.6606007-1.8261986 1.0112-.9540825.5571003-1.2752991 1.7821999-.717701 2.7357998.3711014.6368007 1.0410004.9917011 1.7285004.9917011z"/><path d="m88.5106812 96.8695984c-.5077972.3798981-1.0252991.7481003-1.5516815 1.1040039-.9151154.619194-1.1543198 1.8628006-.5352173 2.7773972.3867035.5713043 1.0166016.8788986 1.6582184.8788986.3857803 0 .775383-.1112976 1.1191788-.3437958.5771027-.3911057 1.1455002-.7954025 1.7041016-1.2124023.8847198-.6611023 1.0663986-1.9144974.4052048-2.7993011-.6611025-.8843003-1.9140016-1.0669023-2.7998048-.4048005z"/><path d="m51.4706841 24.8540001c.1934013 0 .3886986-.0277996.5830002-.0869007.6054993-.1840992 1.2168007-.3549995 1.8339996-.5112 1.0713158-.2709999 1.7196999-1.3589001 1.4482002-2.4296989-.2705002-1.0718002-1.3670998-1.7178001-2.4286995-1.4483013-.6797028.1719017-1.3515015.3594017-2.017601.5620003-1.0565834.3213005-1.6533012 1.4390011-1.3310013 2.4955997.2616997.8628006 1.0547028 1.4185009 1.9121018 1.4185009z"/><path d="m80.2860794 101.6387024c-.5799942.2513962-1.1679001.4897003-1.7616959.714798-1.0332031.3920975-1.5527039 1.5468979-1.1611023 2.5795975.3037186.7993011 1.0634995 1.2910004 1.8701019 1.2910004.2362976 0 .4756165-.0419998.7089996-.1302948.652298-.2476044 1.2968979-.5093002 1.9336166-.785202 1.0135803-.439003 1.4794846-1.6166992 1.0400009-2.6304016-.4394148-1.0136033-1.6191176-1.4789964-2.6299208-1.0394975z"/></svg>