<svg version="1.1" id="Capa_1" xmlns="http://www.w3.org/2000/svg" xmlns:xlink="http://www.w3.org/1999/xlink" x="0px" y="0px" viewBox="0 0 512.003 512.003" style="enable-background:new 0 0 512.003 512.003;" xml:space="preserve">
<g>
	<path style="fill:none;stroke:#000000;stroke-width:15;stroke-linecap:round;stroke-linejoin:round;stroke-miterlimit:10;" d="&#10;&#9;&#9;M155.916,88.893c9.92-1.74,20.16-2.58,30.62-2.44c7.58,0.1,15.03,0.72,22.32,1.84"/>
	<path style="fill:none;stroke:#000000;stroke-width:15;stroke-linecap:round;stroke-linejoin:round;stroke-miterlimit:10;" d="&#10;&#9;&#9;M26.126,282.003c-2.67-11.76-3.91-24.17-3.32-37.37c1.26-62.2,37.07-115.2,88.89-141.15"/>
	<path style="fill:none;stroke:#000000;stroke-width:15;stroke-linecap:round;stroke-linejoin:round;stroke-miterlimit:10;" d="&#10;&#9;&#9;M242.775,97.343c60.32,23.42,103.07,82.03,103.07,150.62l5.48,45.7l21.99,26.71c4.15,5.03,3.03,12.56-2.4,16.17l-25.07,16.63&#10;&#9;&#9;l-10.33,66.93c-1.15,12.06-11.27,21.26-23.38,21.26h-45.56c-9.55,0-17.28,7.74-17.28,17.28v30.71c0,8.36-6.78,15.15-15.15,15.15&#10;&#9;&#9;h-122.72c-8.36,0-15.15-6.79-15.15-15.15v-48.87c0-7.711-0.715-15.343-2.101-22.819"/>
	<g>
		<path style="fill:none;stroke:#000000;stroke-width:15;stroke-linecap:round;stroke-linejoin:round;stroke-miterlimit:10;" d="&#10;&#9;&#9;&#9;M251.333,102.281l-9.839-5.68c0.565-3.308,0.876-6.703,0.876-10.171s-0.311-6.864-0.876-10.171l9.839-5.68&#10;&#9;&#9;&#9;c5.391-3.113,7.238-10.006,4.126-15.398l-9.486-16.43c-3.113-5.391-10.006-7.238-15.398-4.126l-9.836,5.679&#10;&#9;&#9;&#9;c-5.203-4.334-11.148-7.805-17.62-10.192V18.772c0-6.225-5.047-11.272-11.272-11.272h-18.972c-6.225,0-11.272,5.047-11.272,11.272&#10;&#9;&#9;&#9;V30.11c-6.472,2.386-12.417,5.858-17.62,10.192l-9.836-5.679c-5.391-3.113-12.285-1.265-15.398,4.126l-9.486,16.43&#10;&#9;&#9;&#9;c-3.113,5.391-1.265,12.285,4.126,15.398l9.839,5.68c-0.565,3.308-0.876,6.703-0.876,10.171s0.311,6.864,0.876,10.171l-9.839,5.68&#10;&#9;&#9;&#9;c-5.391,3.113-7.238,10.007-4.126,15.398l9.486,16.43c3.113,5.391,10.006,7.238,15.398,4.126l9.836-5.679&#10;&#9;&#9;&#9;c5.203,4.334,11.148,7.806,17.62,10.192v11.339c0,6.225,5.046,11.272,11.272,11.272h18.972c6.225,0,11.272-5.047,11.272-11.272&#10;&#9;&#9;&#9;v-11.339c6.472-2.386,12.417-5.858,17.62-10.192l9.836,5.679c5.391,3.113,12.285,1.265,15.398-4.126l9.486-16.43&#10;&#9;&#9;&#9;C258.572,112.288,256.725,105.394,251.333,102.281z"/>
		
			<circle style="fill:none;stroke:#000000;stroke-width:15;stroke-linecap:round;stroke-linejoin:round;stroke-miterlimit:10;" cx="182.361" cy="86.429" r="26.568"/>
	</g>
	<g>
		<path style="fill:none;stroke:#000000;stroke-width:15;stroke-linecap:round;stroke-linejoin:round;stroke-miterlimit:10;" d="&#10;&#9;&#9;&#9;M420.476,152.077c-36.396,36.396-36.396,95.617,0,132.013"/>
		<path style="fill:none;stroke:#000000;stroke-width:15;stroke-linecap:round;stroke-linejoin:round;stroke-miterlimit:10;" d="&#10;&#9;&#9;&#9;M439.617,171.218c-25.842,25.842-25.842,67.889,0,93.731"/>
		<path style="fill:none;stroke:#000000;stroke-width:15;stroke-linecap:round;stroke-linejoin:round;stroke-miterlimit:10;" d="&#10;&#9;&#9;&#9;M458.758,190.359c-15.312,15.312-15.312,40.137,0,55.449"/>
	</g>
	<g>
		<path style="fill:none;stroke:#000000;stroke-width:15;stroke-linecap:round;stroke-linejoin:round;stroke-miterlimit:10;" d="&#10;&#9;&#9;&#9;M457.937,36.487c17.345,0,31.405,14.061,31.405,31.406v64.066c0,4.333-5.599,6.062-8.043,2.484l-16.706-24.469h-82.585&#10;&#9;&#9;&#9;c-17.345,0-31.405-14.061-31.405-31.406V67.893c0-17.345,14.061-31.406,31.405-31.406h40.809"/>
		<g>
			
				<line style="fill:none;stroke:#000000;stroke-width:15;stroke-linecap:round;stroke-linejoin:round;stroke-miterlimit:10;" x1="386.528" y1="72.87" x2="386.528" y2="72.87"/>
			
				<line style="fill:none;stroke:#000000;stroke-width:15;stroke-linecap:round;stroke-linejoin:round;stroke-miterlimit:10;" x1="419.324" y1="72.87" x2="419.324" y2="72.87"/>
			
				<line style="fill:none;stroke:#000000;stroke-width:15;stroke-linecap:round;stroke-linejoin:round;stroke-miterlimit:10;" x1="452.121" y1="72.87" x2="452.121" y2="72.87"/>
		</g>
	</g>
	<g>
		<g>
			<path style="fill:none;stroke:#000000;stroke-width:15;stroke-linecap:round;stroke-linejoin:round;stroke-miterlimit:10;" d="&#10;&#9;&#9;&#9;&#9;M274.928,375l-25.307-17.278v-71.498c0-17.939-14.542-32.481-32.481-32.481H58.332c-17.939,0-32.481,14.542-32.481,32.481v64.613&#10;&#9;&#9;&#9;&#9;c0,17.939,14.542,32.481,32.481,32.481h214.027C276.84,383.318,278.629,377.527,274.928,375z"/>
		</g>
		<g>
			
				<polyline style="fill:none;stroke:#000000;stroke-width:15;stroke-linecap:round;stroke-linejoin:round;stroke-miterlimit:10;" points="&#10;&#9;&#9;&#9;&#9;104.259,293.327 114.645,293.327 114.645,341.92 &#9;&#9;&#9;"/>
		</g>
		<g>
			<path style="fill:none;stroke:#000000;stroke-width:15;stroke-linecap:round;stroke-linejoin:round;stroke-miterlimit:10;" d="&#10;&#9;&#9;&#9;&#9;M81.024,328.859c0,7.761-6.291,14.052-14.052,14.052c-7.761,0-14.052-6.291-14.052-14.052v-22.472&#10;&#9;&#9;&#9;&#9;c0-7.761,6.291-14.052,14.052-14.052c7.761,0,14.052,6.291,14.052,14.052V328.859z"/>
		</g>
		<g>
			<path style="fill:none;stroke:#000000;stroke-width:15;stroke-linecap:round;stroke-linejoin:round;stroke-miterlimit:10;" d="&#10;&#9;&#9;&#9;&#9;M168.32,328.859c0,7.761-6.291,14.052-14.052,14.052c-7.761,0-14.052-6.291-14.052-14.052v-22.472&#10;&#9;&#9;&#9;&#9;c0-7.761,6.291-14.052,14.052-14.052c7.761,0,14.052,6.291,14.052,14.052V328.859z"/>
		</g>
		<g>
			<path style="fill:none;stroke:#000000;stroke-width:15;stroke-linecap:round;stroke-linejoin:round;stroke-miterlimit:10;" d="&#10;&#9;&#9;&#9;&#9;M222.302,328.859c0,7.761-6.291,14.052-14.052,14.052c-7.761,0-14.052-6.291-14.052-14.052v-22.472&#10;&#9;&#9;&#9;&#9;c0-7.761,6.291-14.052,14.052-14.052c7.761,0,14.052,6.291,14.052,14.052V328.859z"/>
		</g>
	</g>
	
		<line style="fill:none;stroke:#000000;stroke-width:15;stroke-linecap:round;stroke-linejoin:round;stroke-miterlimit:10;" x1="341.035" y1="382.957" x2="311.906" y2="382.957"/>
</g>
<g>
</g>
<g>
</g>
<g>
</g>
<g>
</g>
<g>
</g>
<g>
</g>
<g>
</g>
<g>
</g>
<g>
</g>
<g>
</g>
<g>
</g>
<g>
</g>
<g>
</g>
<g>
</g>
<g>
</g>
</svg>