<svg enable-background="new 0 0 512 512" viewBox="0 0 512 512" xmlns="http://www.w3.org/2000/svg"><g id="_x30_2_NFT_Security"><g><path d="m399.182 62.51c-3.637-.739-43.863 5.991-69.728-22.99-18.649-20.887-45.422-32.868-73.455-32.868-28.04 0-54.811 11.981-73.45 32.866-25.765 28.869-66.303 22.272-69.856 22.993-58.069 0-103.623 50.521-97.126 108.19 9.289 82.448 35.393 149.833 77.86 201.747v93.56c0 21.694 17.741 39.342 39.551 39.342h246.045c21.81 0 39.551-17.648 39.551-39.342v-93.533c42.478-51.914 68.569-119.316 77.857-201.771 6.497-57.619-38.943-108.194-97.249-108.194zm4.28 403.496c0 13.361-10.963 24.23-24.439 24.23h-246.045c-13.476 0-24.439-10.869-24.439-24.23v-95.626c0-13.361 10.963-24.23 24.439-24.23h246.045c13.476 0 24.439 10.869 24.439 24.23zm-232.24-134.967c-39.002-40.748-62.307-96.943-70.519-169.826-.827-7.316 5.188-13.761 12.404-13.494 56.316 1.931 101.209-15.456 133.504-51.633 4.873-5.455 13.909-5.46 18.779 0 32.295 36.179 77.225 53.576 133.504 51.633 7.381-.194 13.216 6.281 12.401 13.494-8.208 72.85-31.442 129.078-70.408 169.826zm310.191-162.029c-8.356 74.177-30.79 135.616-66.964 183.983-6.468-12.985-19.896-21.955-35.426-21.955h-17.665c35.534-41.968 57.018-97.675 64.957-168.133 1.854-16.438-11.452-30.863-27.934-30.288-51.571 1.773-92.549-13.917-121.715-46.595-11.023-12.346-30.272-12.384-41.329 0-29.169 32.674-70.193 48.322-121.713 46.595-16.525-.588-29.782 13.895-27.939 30.288 7.942 70.49 29.493 126.168 65.064 168.133h-17.77c-15.526 0-28.951 8.965-35.421 21.945-36.172-48.366-58.614-109.798-66.972-183.976-5.474-48.557 32.918-91.385 81.982-91.385 14.02-1.139 51.759 5.003 81.257-28.042 15.774-17.677 38.437-27.816 62.175-27.816 23.733 0 46.396 10.141 62.18 27.821 30.886 34.602 76.114 27.222 81.129 28.037 49.108 0 87.593 42.731 82.104 91.388z"/><path d="m202.138 382.534c-4.174 0-7.556 3.382-7.556 7.556v37.372l-40.732-42.594c-2.133-2.231-5.411-2.944-8.274-1.791-2.865 1.149-4.742 3.926-4.742 7.012v56.205c0 4.174 3.382 7.556 7.556 7.556s7.556-3.382 7.556-7.556v-37.372l40.732 42.594c2.144 2.242 5.426 2.935 8.274 1.791 2.865-1.149 4.742-3.926 4.742-7.012v-56.205c0-4.174-3.382-7.556-7.556-7.556z"/><path d="m281.73 382.534h-39.989c-4.174 0-7.556 3.382-7.556 7.556v56.205c0 4.174 3.382 7.556 7.556 7.556s7.556-3.382 7.556-7.556v-14.32h23.18c4.174 0 7.556-3.382 7.556-7.556s-3.382-7.556-7.556-7.556h-23.18v-19.217h32.433c4.174 0 7.556-3.382 7.556-7.556s-3.382-7.556-7.556-7.556z"/><path d="m363.611 382.534h-53.042c-4.174 0-7.556 3.382-7.556 7.556s3.382 7.556 7.556 7.556h18.966v48.649c0 4.174 3.382 7.556 7.556 7.556s7.556-3.382 7.556-7.556v-48.649h18.964c4.174 0 7.556-3.382 7.556-7.556s-3.382-7.556-7.556-7.556z"/></g></g><g id="Layer_1"/></svg>