<svg clip-rule="evenodd" fill-rule="evenodd" height="1.707in" image-rendering="optimizeQuality" shape-rendering="geometricPrecision" text-rendering="geometricPrecision" viewBox="0 0 1707 1707" width="1.707in" xmlns="http://www.w3.org/2000/svg"><g id="Layer_x0020_1"><path d="m1367 1536c-25 0-66 6-66-29 0-36 41-29 66-29 38 0 38 58 0 58zm-1163 146c-36 0-29-43-29-67h-121c-16 0-29-13-29-29v-133c0-16 13-29 29-29h121c0-28-6-54 17-64 10-5 22-3 31 5l150 133c13 12 13 32 0 43l-150 134c-6 5-13 7-19 7zm-121-125h121c16 0 28 13 28 32l78-69-78-69c0 18-12 31-28 31h-121zm171-244h-134c-16 0-29-13-29-29v-121c-28 0-54 5-64-17-5-11-3-23 5-31l133-150c11-13 33-13 44 0l131 147c18 19 10 48-20 51h-37v121c0 16-13 29-29 29zm-105-58h76v-121c0-17 13-29 31-29l-69-77-69 77c18 0 31 12 31 29zm1211-410h-148c-16 0-29-13-29-29v-96c-33-12-65-31-92-54l-84 49c-14 8-32 3-40-11l-73-127c-8-14-4-32 10-40l84-48c-6-36-6-72 0-108l-84-48c-14-8-18-26-10-40l73-127c8-14 26-19 40-11l84 49c27-23 59-42 92-54v-96c0-16 13-29 29-29h148c16 0 28 13 28 29v96c34 12 66 31 93 54l84-49c14-8 32-3 40 11l73 127c8 14 3 32-10 40l-84 48c6 36 6 72 0 108l84 48c13 8 18 26 10 40l-73 127c-8 14-26 19-40 11l-84-49c-27 23-59 42-93 54v97c1 15-12 28-28 28zm-119-57h90v-89c0-42 53-17 126-89 9-9 24-11 35-5l77 45 45-77c-131-76-83-38-83-138s-48-62 83-138l-45-77-77 45c-36 20-42-38-140-66-13-3-21-15-21-28v-88h-90v88c0 42-53 17-126 89-10 9-24 11-35 5l-77-45-45 77c131 76 83 38 83 138s48 62-83 138l45 77 77-45c36-20 42 38 140 66 13 3 21 15 21 28zm45-179c-96 0-174-78-174-174s78-174 174-174 174 78 174 174-78 174-174 174zm0-290c-64 0-116 52-116 116s52 116 116 116 116-52 116-116-52-116-116-116zm-1236 167c-66-107-20-537 316-450 141 36 75 62 266 73 144 8 172 48 173 117 2 101 60 135-21 255 36 100-41 254-99 318-115 125-300 155-447 72-106-61-226-252-188-385zm677 8c-79-83-319 2-404-51-48-29-80-43-104-43-33 0-61 29-110 94-38 101 70 276 158 326 123 70 279 45 375-60 56-61 116-201 85-266zm-145-97c53 0 116 5 163 37 50-82 4-102 2-207 0-32-1-53-119-60-202-12-148-42-277-75-116-30-199 11-242 121-32 81-30 167-20 213 84-105 144-107 264-32 32 19 176 3 229 3zm-103 395h-120c-38 0-38-58 0-58h120c38 0 38 58 0 58zm1028 890h-916c-16 0-29-13-29-29v-165h-117c-16 0-29-13-29-29v-307c0-16 13-29 29-29h117v-166c0-16 13-29 29-29h916c16 0 29 13 29 29v155h117c16 0 29 13 29 29v328c0 16-13 29-29 29h-117v155c0 16-13 29-29 29zm-945-252v-249h-88v249zm58 194h858v-638h-858zm764-244h-670c-16 0-29-13-29-29v-278c0-16 13-29 29-29h670c16 0 29 13 29 29v278c0 16-13 29-29 29zm-641-58h612v-220h-612zm793 118h88v-270h-88zm-642-142c-48 0-87-39-87-86 0-48 39-87 87-87 47 0 86 39 86 87 0 47-39 86-86 86zm0-115c-38 0-38 57 0 57 37 0 37-57 0-57zm310 115c-48 0-86-39-86-86 0-48 38-87 86-87s86 39 86 87c0 47-38 86-86 86zm0-115c-37 0-37 57 0 57s37-57 0-57zm-436 353c-25 0-66 6-66-29 0-36 41-29 66-29 38 0 38 58 0 58zm150 0c-25 0-67 6-67-29 0-36 42-29 67-29 38 0 38 58 0 58zm150 0c-26 0-67 6-67-29 0-36 41-29 67-29 38 0 38 58 0 58zm149 0c-25 0-66 6-66-29 0-36 41-29 66-29 38 0 38 58 0 58z"/></g></svg>