<svg id="Layer_1" enable-background="new 0 0 64 64" height="512" viewBox="0 0 64 64" width="512" xmlns="http://www.w3.org/2000/svg"><path d="m30 56h4v2h-4z"/><path d="m52 22c-1.1 0-2.3.2-3.3.6l.7 1.9c4.2-1.5 8.7.7 10.2 4.9s-.7 8.7-4.9 10.2-8.7-.7-10.2-4.9c-.3-.9-.5-1.8-.5-2.7h-2c0 5.1 3.9 9.4 9 9.9v10.1h-38v-47c0-.6.4-1 1-1h36c.6 0 1 .4 1 1v7h2v-7c0-1.7-1.3-3-3-3h-36c-1.7 0-3 1.3-3 3v54c0 1.7 1.3 3 3 3h36c1.7 0 3-1.3 3-3v-17.1c5.5-.6 9.5-5.5 8.9-10.9-.5-5.1-4.8-9-9.9-9zm-2 38h-36c-.6 0-1-.4-1-1v-5h38v5c0 .6-.4 1-1 1z"/><path d="m47.6 25.3-1.1-1.7c-.7.5-1.3 1-1.9 1.6l1.5 1.3c.4-.3.9-.8 1.5-1.2z"/><path d="m44.8 28.4-1.8-.8c-.4.7-.6 1.5-.8 2.2l2 .4c.1-.6.4-1.2.6-1.8z"/><path d="m51 26v6.4l4.3 4.3 1.4-1.4-3.7-3.7v-5.6z"/><path d="m44 22h-2v-15h-6v15h-3v-13h-6v13h-3v-10h-6v10h-2v2h28zm-6-13h2v13h-2zm-9 2h2v11h-2zm-9 3h2v8h-2z"/><path d="m16 27h21v2h-21z"/><path d="m16 32h12v2h-12z"/><path d="m31 32h6v2h-6z"/><path d="m16 37h12v2h-12z"/><path d="m31 37h6v2h-6z"/><path d="m16 42h12v2h-12z"/><path d="m31 42h6v2h-6z"/><path d="m40 42h6v2h-6z"/><path d="m16 47h12v2h-12z"/><path d="m31 47h6v2h-6z"/><path d="m40 47h8v2h-8z"/><path d="m57.7 16.3c-3.2-3-8.2-3-11.4 0l1.4 1.4c2.4-2.3 6.2-2.3 8.6 0z"/><path d="m49.2 19.4 1.5 1.3c.5-.7 1.5-.8 2.1-.3.1.1.2.2.3.3l1.5-1.3c-1.2-1.5-3.4-1.8-4.9-.6-.1.1-.3.3-.5.6z"/></svg>