<svg clip-rule="evenodd" fill-rule="evenodd" height="512" stroke-linejoin="round" stroke-miterlimit="2" viewBox="0 0 267 267" width="512" xmlns="http://www.w3.org/2000/svg"><path d="m113.835 115.662c-.581-.041-1.151.163-1.574.562s-.66.957-.654 1.539c.002.187.003.377.003.569 0 5.564-.853 10.864-2.398 15.675-.231.718-.055 1.505.46 2.057 1.289 1.382 2.804 2.255 4.391 2.522 2.115.357 4.09-.355 5.675-1.942 1.929-1.929 3.285-5.322 3.285-9.424 0-7.093-3.819-10.699-8.268-11.448-.311-.053-.618-.089-.92-.11zm1.902 4.801c1.871 1.041 3.119 3.306 3.119 6.757 0 2.38-.557 4.447-1.536 5.843-.673.959-1.539 1.587-2.565 1.415-.413-.07-.805-.246-1.175-.5 1.233-4.222 1.984-8.768 2.157-13.515z"/><path d="m53.696 117.763c.006-.582-.231-1.14-.654-1.539s-.994-.603-1.574-.562c-.302.021-.61.057-.921.11-4.448.749-8.267 4.355-8.267 11.448 0 4.102 1.356 7.495 3.284 9.424 1.586 1.587 3.561 2.299 5.676 1.942 1.586-.267 3.101-1.14 4.39-2.522.515-.552.691-1.339.46-2.057-1.544-4.811-2.397-10.111-2.397-15.675 0-.192.001-.382.003-.569zm-4.131 2.7c.174 4.747.925 9.293 2.159 13.515-.371.254-.763.43-1.177.5-1.025.172-1.892-.456-2.565-1.415-.979-1.396-1.536-3.463-1.536-5.843 0-3.451 1.249-5.716 3.119-6.757z"/><path d="m50.154 112.555c-.246.316-.395.697-.43 1.096-.131 1.499-.198 3.059-.198 4.681 0 24.176 15.028 43.551 33.125 43.551 18.098 0 33.126-19.375 33.126-43.551l-.026-1.708c-.478-9.798-9.839-16.745-18.669-19.692-3.494-1.166-6.875-1.71-9.515-1.624-2.121.07-3.824.572-4.932 1.356-2.292 1.619-3.621 2.548-5.106 2.713-1.504.168-3.09-.44-5.835-1.496-2.416-.929-5.631-.011-8.843 2.146-6.158 4.135-12.657 12.476-12.697 12.528zm3.673 2.072c1.409-1.757 6.484-7.875 11.346-11.14 1.085-.728 2.149-1.311 3.154-1.62.682-.209 1.317-.31 1.871-.097 3.64 1.4 5.798 1.971 7.793 1.748 2.015-.224 3.938-1.253 7.049-3.452.591-.418 1.532-.556 2.664-.593 2.238-.074 5.097.423 8.059 1.411 7.3 2.436 15.406 7.816 15.824 15.907.016.519.023 1.026.023 1.541 0 21.599-12.79 39.385-28.959 39.385-16.168 0-28.958-17.786-28.958-39.385 0-1.274.044-2.506.132-3.698z"/><path d="m74.421 145.04c1.215.18 2.196.594 3.196.97.768.289 1.503.589 2.282.842.694.225 1.41.416 2.171.522.738.102 1.515.125 2.338.056.724-.061 1.481-.17 2.285-.4 1.401-.399 2.919-1.038 4.673-2.092.609-.267.886-.979.618-1.587-.267-.609-.979-.886-1.587-.619-1.813.539-3.297.692-4.608.75-.929.042-1.737-.063-2.503-.146-.917-.099-1.757-.242-2.592-.382-2.017-.338-3.931-.632-6.273-.324-.665 0-1.205.54-1.205 1.205s.54 1.205 1.205 1.205z"/><path d="m68.904 78.01c-2.714-.051-6.001.041-8.78.562-3.142.588-5.643 1.846-6.701 3.606-9.951 16.551-3.558 32.427-3.558 32.427.277.694.904 1.186 1.644 1.29s1.479-.196 1.937-.786c0 0 5.999-7.769 11.712-11.612 1.087-.732 2.155-1.317 3.163-1.628.685-.211 1.322-.313 1.877-.099 3.64 1.4 5.798 1.971 7.793 1.748 2.015-.224 3.938-1.253 7.049-3.452.604-.427 1.572-.564 2.736-.596 2.294-.061 5.226.466 8.249 1.503 7.434 2.55 15.621 8.139 15.579 16.52-.004.795.444 1.523 1.156 1.876.712.354 1.563.272 2.194-.211 0 0 8.01-5.975 3.284-16.449.401-1.344 1.055-4.044.809-6.627-.276-2.894-1.59-5.607-4.926-6.81-3.021-1.089-9.383-6.387-17.053-10.426-8.345-4.396-18.113-7.278-27.003-3.129-.639.298-1.084.899-1.182 1.597-.033.235-.025.47.021.696zm45.999 34.218c-2.526-7.387-10.166-12.672-17.527-15.196-3.556-1.22-7.014-1.8-9.713-1.727-2.165.059-3.904.564-5.028 1.359-2.292 1.619-3.621 2.548-5.106 2.713-1.504.168-3.09-.44-5.835-1.496-2.42-.931-5.644-.006-8.862 2.159-3.753 2.525-7.631 6.609-10.094 9.421-1.064-5.103-1.854-14.973 4.256-25.136.222-.369.646-.613 1.141-.845.774-.363 1.723-.62 2.756-.813 5.448-1.021 13.031-.214 13.031-.214.904.094 1.765-.408 2.127-1.242.362-.833.142-1.805-.543-2.402l-.504-.438c6.774-1.678 13.893.879 20.124 4.161 7.89 4.156 14.474 9.539 17.581 10.66 1.568.565 2.062 1.926 2.192 3.286.261 2.74-.846 5.65-.846 5.65-.205.544-.173 1.148.088 1.667 1.78 3.547 1.535 6.4.762 8.438z"/><path d="m141.671 224.961c.36-.904.046-1.938-.756-2.488-.428-.294-.851-.594-1.27-.9-1.425-1.232-2.263-2.435-2.368-3.746-.106-1.329.549-2.668 1.761-4.103.699-.827.648-2.052-.118-2.818-2.382-2.38-4.488-5.021-6.279-7.872-.576-.917-1.759-1.24-2.721-.743-1.668.863-3.119 1.204-4.391.804-1.245-.39-2.225-1.461-3.088-3.064-2.572-5.944-4.018-12.267-4.287-18.694.108-2.633.954-4.355 2.872-5.013.799-.274 1.353-1.002 1.404-1.845.051-.842-.411-1.632-1.171-2-9.951-4.825-15.923-9.533-20.241-13.289-.93-.809-1.83-2.463-2.766-4.512-.252-.553-.734-.969-1.319-1.137s-1.214-.072-1.723.263c-3.789 2.498-8.05 3.913-12.559 3.913-4.346 0-8.463-1.315-12.147-3.647-.483-.305-1.069-.399-1.623-.26s-1.026.5-1.306.998c-.977 1.733-2.071 3.321-3.29 4.382-6.007 5.225-15.213 12.277-33.836 18.942-8.362 2.993-11.923 11.686-11.926 22.158-.004 14.752 6.974 32.929 15.103 41.201 2.805 2.855 7.969 5.225 14.616 6.938 9.427 2.429 21.917 3.654 34.409 3.654s24.983-1.225 34.41-3.654c6.646-1.713 11.811-4.083 14.616-6.938 3.768-3.834 7.303-9.771 9.994-16.53zm-4.493-.03c-2.366 5.558-5.31 10.421-8.473 13.64-2.42 2.462-6.951 4.345-12.684 5.823-9.141 2.356-21.256 3.523-33.37 3.523-12.113 0-24.228-1.167-33.37-3.523-5.733-1.478-10.264-3.361-12.683-5.823-7.545-7.678-13.912-24.588-13.908-38.28.002-8.493 2.381-15.808 9.164-18.236 19.362-6.93 28.92-14.289 35.165-19.721 1.096-.954 2.135-2.228 3.087-3.674 3.876 2.083 8.112 3.223 12.545 3.223 4.548 0 8.888-1.2 12.847-3.387.932 1.72 1.884 3.054 2.785 3.838 4.03 3.505 9.437 7.805 17.951 12.276-1.369 1.546-2.144 3.733-2.248 6.607-.002.052-.002.105 0 .158.276 7.013 1.851 13.913 4.645 20.352.021.048.044.095.068.142 1.497 2.839 3.408 4.519 5.582 5.202 1.722.54 3.668.473 5.82-.312 1.391 2.046 2.937 3.984 4.622 5.797-1.245 1.922-1.743 3.803-1.6 5.603.182 2.271 1.395 4.508 3.83 6.599z"/><path d="m181.268 123.41c-.051-.013-.102-.025-.154-.035-6.899-1.291-13.977-1.291-20.875 0-.052.01-.103.022-.154.035-3.101.828-5.165 2.317-6.314 4.284-.91 1.56-1.277 3.471-.991 5.744-2.304.901-4.537 1.977-6.68 3.216-1.597-1.641-3.32-2.546-5.107-2.806-2.254-.328-4.705.356-7.285 2.265-.043.031-.084.064-.124.098-5.31 4.589-9.723 10.123-13.015 16.321-.025.047-.048.094-.069.142-1.286 2.941-1.408 5.483-.587 7.608.652 1.684 1.917 3.162 3.873 4.356-.732 2.363-1.284 4.779-1.651 7.227-2.278.226-4.06 1.009-5.378 2.243-1.662 1.558-2.655 3.902-2.771 7.109-.002.052-.002.105 0 .158.276 7.013 1.851 13.913 4.645 20.352.021.048.044.095.068.142 1.497 2.839 3.408 4.519 5.582 5.202 1.722.54 3.668.473 5.82-.312 1.391 2.046 2.937 3.984 4.622 5.797-1.245 1.922-1.743 3.803-1.6 5.603.182 2.271 1.395 4.508 3.83 6.599.04.034.081.067.123.098 5.655 4.157 12.033 7.228 18.808 9.058.051.013.102.025.154.035 3.153.6 5.658.153 7.547-1.121 1.497-1.009 2.657-2.572 3.385-4.744 2.467.188 4.946.188 7.414.001.727 2.171 1.887 3.734 3.384 4.743 1.888 1.274 4.394 1.721 7.547 1.121.051-.01.103-.022.153-.035 6.776-1.83 13.153-4.901 18.808-9.058.043-.031.084-.064.124-.098 2.435-2.091 3.648-4.328 3.829-6.599.144-1.8-.355-3.682-1.599-5.605 1.685-1.811 3.231-3.75 4.623-5.796 2.151.786 4.096.853 5.819.313 2.174-.683 4.085-2.363 5.581-5.202.025-.047.048-.094.069-.142 2.793-6.439 4.369-13.339 4.645-20.352.002-.053.002-.106 0-.158-.117-3.207-1.109-5.551-2.772-7.109-1.317-1.234-3.099-2.017-5.379-2.244-.366-2.447-.917-4.863-1.649-7.228 1.955-1.192 3.221-2.671 3.872-4.354.822-2.125.7-4.667-.587-7.608-.021-.048-.044-.095-.068-.142-3.292-6.198-7.705-11.732-13.016-16.321-.04-.034-.081-.067-.123-.098-2.58-1.909-5.031-2.593-7.286-2.265-1.786.26-3.51 1.165-5.108 2.806-2.141-1.239-4.375-2.315-6.68-3.217.288-2.272-.079-4.184-.99-5.743-1.149-1.967-3.212-3.456-6.313-4.284zm-1.001 4.046c1.776.484 3.053 1.204 3.716 2.34.673 1.151.663 2.642.194 4.46-.271 1.049.307 2.13 1.329 2.488 3.178 1.111 6.221 2.577 9.072 4.369.917.576 2.123.353 2.774-.512 1.129-1.501 2.288-2.438 3.608-2.63 1.291-.188 2.639.351 4.111 1.421 4.896 4.239 8.943 9.309 11.973 14.983.75 1.73.983 3.177.509 4.404-.481 1.243-1.652 2.165-3.366 2.932-.989.442-1.474 1.568-1.117 2.59 1.113 3.178 1.865 6.471 2.241 9.817.121 1.076 1.047 1.88 2.13 1.85 1.877-.054 3.332.269 4.305 1.181.952.892 1.371 2.282 1.452 4.1-.261 6.471-1.702 12.796-4.248 18.703-.885 1.665-1.872 2.749-3.126 3.143-1.272.4-2.724.059-4.392-.804-.962-.497-2.145-.174-2.721.743-1.791 2.851-3.897 5.492-6.278 7.872-.766.766-.817 1.991-.118 2.818 1.212 1.435 1.867 2.774 1.761 4.103-.104 1.3-.93 2.495-2.3 3.692-5.223 3.83-11.066 6.647-17.272 8.339-1.853.346-3.316.251-4.407-.484-1.105-.745-1.743-2.092-2.109-3.934-.211-1.063-1.201-1.786-2.277-1.665-3.346.377-6.724.377-10.069 0-1.077-.121-2.066.602-2.277 1.665-.366 1.842-1.005 3.189-2.11 3.934-1.081.73-2.53.829-4.32.504-6.251-1.695-12.097-4.507-17.289-8.304-1.426-1.233-2.264-2.436-2.369-3.747-.106-1.329.549-2.668 1.761-4.103.699-.827.648-2.052-.118-2.818-2.382-2.38-4.488-5.021-6.279-7.872-.576-.917-1.759-1.24-2.721-.743-1.668.863-3.119 1.204-4.391.804-1.245-.39-2.225-1.461-3.088-3.064-2.572-5.943-4.018-12.267-4.287-18.694.075-1.884.493-3.289 1.453-4.188.972-.912 2.428-1.235 4.305-1.181 1.083.03 2.008-.774 2.13-1.85.376-3.346 1.128-6.639 2.24-9.817.358-1.022-.127-2.148-1.116-2.59-1.714-.767-2.886-1.689-3.366-2.932-.471-1.217-.245-2.651.47-4.324 3.043-5.717 7.086-10.791 11.943-15.008 1.519-1.116 2.879-1.665 4.18-1.476 1.319.192 2.479 1.129 3.608 2.63.651.865 1.856 1.088 2.773.512 2.851-1.792 5.894-3.258 9.073-4.369 1.022-.358 1.6-1.439 1.329-2.488-.47-1.818-.479-3.309.193-4.46.658-1.127 1.92-1.845 3.675-2.329 6.367-1.185 12.853-1.187 19.179-.019zm-9.591 23.97c-15.296 0-27.715 12.419-27.715 27.716 0 15.296 12.419 27.715 27.715 27.715 15.297 0 27.716-12.419 27.716-27.715 0-15.297-12.419-27.716-27.716-27.716zm0 4.167c12.997 0 23.549 10.552 23.549 23.549 0 12.996-10.552 23.548-23.549 23.548-12.996 0-23.548-10.552-23.548-23.548 0-12.997 10.552-23.549 23.548-23.549z"/><path d="m206.642 36.859c0-7.23-5.87-13.1-13.1-13.1h-22.034c-7.23 0-13.1 5.87-13.1 13.1v22.033c0 7.23 5.87 13.1 13.1 13.1h22.034c7.23 0 13.1-5.87 13.1-13.1zm-4.167 0v22.033c0 4.931-4.003 8.934-8.933 8.934h-22.034c-4.93 0-8.933-4.003-8.933-8.934v-22.033c0-4.931 4.003-8.934 8.933-8.934h22.034c4.93 0 8.933 4.003 8.933 8.934z"/><path d="m195.97 36.859c0-1.34-1.088-2.428-2.428-2.428h-22.034c-1.34 0-2.428 1.088-2.428 2.428v22.033c0 1.34 1.088 2.428 2.428 2.428h22.034c1.34 0 2.428-1.088 2.428-2.428zm-22.723 1.739v18.555h18.556v-18.555z"/><path d="m191.803 16.667v9.175c0 1.15.934 2.083 2.083 2.083 1.15 0 2.084-.933 2.084-2.083v-9.175c0-1.15-.934-2.084-2.084-2.084-1.149 0-2.083.934-2.083 2.084z"/><path d="m180.442 16.667v9.175c0 1.15.933 2.083 2.083 2.083s2.083-.933 2.083-2.083v-9.175c0-1.15-.933-2.084-2.083-2.084s-2.083.934-2.083 2.084z"/><path d="m169.08 16.667v9.175c0 1.15.934 2.083 2.084 2.083s2.083-.933 2.083-2.083v-9.175c0-1.15-.933-2.084-2.083-2.084s-2.084.934-2.084 2.084z"/><path d="m213.734 57.153h-9.176c-1.149 0-2.083.934-2.083 2.084s.934 2.083 2.083 2.083h9.176c1.15 0 2.083-.933 2.083-2.083s-.933-2.084-2.083-2.084z"/><path d="m213.734 45.792h-9.176c-1.149 0-2.083.934-2.083 2.083 0 1.15.934 2.084 2.083 2.084h9.176c1.15 0 2.083-.934 2.083-2.084 0-1.149-.933-2.083-2.083-2.083z"/><path d="m213.734 34.431h-9.176c-1.149 0-2.083.933-2.083 2.083s.934 2.084 2.083 2.084h9.176c1.15 0 2.083-.934 2.083-2.084s-.933-2.083-2.083-2.083z"/><path d="m173.247 79.084v-9.175c0-1.15-.933-2.083-2.083-2.083s-2.084.933-2.084 2.083v9.175c0 1.15.934 2.084 2.084 2.084s2.083-.934 2.083-2.084z"/><path d="m184.608 79.084v-9.175c0-1.15-.933-2.083-2.083-2.083s-2.083.933-2.083 2.083v9.175c0 1.15.933 2.084 2.083 2.084s2.083-.934 2.083-2.084z"/><path d="m195.97 79.084v-9.175c0-1.15-.934-2.083-2.084-2.083-1.149 0-2.083.933-2.083 2.083v9.175c0 1.15.934 2.084 2.083 2.084 1.15 0 2.084-.934 2.084-2.084z"/><path d="m151.316 38.598h9.176c1.15 0 2.083-.934 2.083-2.084s-.933-2.083-2.083-2.083h-9.176c-1.15 0-2.083.933-2.083 2.083s.933 2.084 2.083 2.084z"/><path d="m151.316 49.959h9.176c1.15 0 2.083-.934 2.083-2.084 0-1.149-.933-2.083-2.083-2.083h-9.176c-1.15 0-2.083.934-2.083 2.083 0 1.15.933 2.084 2.083 2.084z"/><path d="m151.316 61.32h9.176c1.15 0 2.083-.933 2.083-2.083s-.933-2.084-2.083-2.084h-9.176c-1.15 0-2.083.934-2.083 2.084s.933 2.083 2.083 2.083z"/><path d="m132.289 42.42h-39.605c-2.917 0-5.716 1.159-7.779 3.222-2.063 2.064-3.222 4.862-3.222 7.78v22.747c0 1.15.934 2.084 2.083 2.084 1.15 0 2.084-.934 2.084-2.084 0 0 0-13.382 0-22.747 0-1.813.72-3.552 2.002-4.833 1.281-1.282 3.02-2.002 4.832-2.002h39.605c1.15 0 2.084-.934 2.084-2.083 0-1.15-.934-2.084-2.084-2.084z"/><path d="m107.566 88.22s7.645-7.95 11.974-12.451c1.461-1.52 3.477-2.378 5.585-2.378h21.265c1.15 0 2.084-.934 2.084-2.084 0-1.149-.934-2.083-2.084-2.083 0 0-14.041 0-21.265 0-3.241 0-6.342 1.32-8.589 3.656-4.328 4.502-11.973 12.452-11.973 12.452-.797.829-.772 2.149.057 2.946s2.149.771 2.946-.058z"/><path d="m117.43 109.129h37.212c2.918 0 5.716-1.159 7.78-3.222 2.063-2.063 3.222-4.861 3.222-7.779 0-5.439 0-11.352 0-11.352 0-1.15-.934-2.083-2.084-2.083-1.149 0-2.083.933-2.083 2.083v11.352c0 1.813-.72 3.551-2.002 4.833-1.281 1.282-3.02 2.002-4.833 2.002-13.409 0-37.212 0-37.212 0-1.15 0-2.084.933-2.084 2.083s.934 2.083 2.084 2.083z"/><path d="m213.917 145.527s23.118-16.622 30.864-22.191c2.111-1.518 3.363-3.959 3.363-6.558 0-10.284 0-43.616 0-57.346 0-4.461-3.617-8.077-8.078-8.077h-13.963c-1.15 0-2.084.933-2.084 2.083s.934 2.084 2.084 2.084h13.963c2.16 0 3.911 1.751 3.911 3.91v57.346c0 1.258-.606 2.44-1.628 3.175l-30.864 22.191c-.934.671-1.147 1.974-.476 2.907.672.934 1.974 1.147 2.908.476z"/><path d="m182.194 126.906s16.961-16.738 24.676-24.35c2.789-2.753 4.36-6.509 4.36-10.428 0-6.282 0-15.959 0-15.959 0-1.149-.934-2.083-2.084-2.083s-2.083.934-2.083 2.083v15.959c0 2.805-1.124 5.492-3.12 7.462 0 0-24.676 24.35-24.676 24.35-.818.808-.827 2.128-.019 2.947.808.818 2.128.827 2.946.019z"/></svg>