<svg id="Layer_1" enable-background="new 0 0 75 75" viewBox="0 0 75 75" xmlns="http://www.w3.org/2000/svg"><g id="Virtual_Assistant"><path d="m45.8789024 55.9744148c.5849609-.5068359.7246094-1.355957.3320313-2.0180664l-.7958984-1.3422852c-.3837891-.6469727-1.1855469-.949707-1.9130859-.7202148l-1.3583984.4311523c-.2213898.0642052-.547348-.5359497-2.0917969-1.1323242-.0556641-.0219727-.0986328-.0585938-.1054688-.090332l-.2910156-1.3520508c-.1601563-.7382813-.8320313-1.2744141-1.5996094-1.2744141h-1.59375c-.7685547 0-1.4404297.5366211-1.5986328 1.2744141l-.2919922 1.3505859c-.0068359.0332031-.0498047.0698242-.1064453.0917969-1.4962807.5789986-1.8469543 1.1658974-2.0410156 1.1005859l-1.3623066-.4423828c-.7226563-.2382813-1.5302734.0615234-1.9179688.7060547l-.8046875 1.3359375c-.3984375.6591797-.2666016 1.5092773.3154297 2.0214844l1.0566406.9306641c.0361328.0317383.0341797.0859375.0292969.1162109-.1418362.883667-.0933723 1.4456215-.0341797 2.2900391l-1.0751953.9257813c-.5859375.5043945-.7285156 1.3525391-.3388672 2.0175781l.7910156 1.3442383c.3798828.6494179 1.1826172.9565468 1.9101563.7280312l1.3623066-.4272499c.208992-.0636063.5560112.5431175 2.0849609 1.1386757.0556641.0219727.0986328.059082.1054688.0917969l.2871094 1.3525391c.1552734.7392578.8261719 1.277832 1.5927734 1.2807617.1030159.0003433.1345139.0004425 1.6005859.0053711.7636719 0 1.4345703-.5322266 1.5976563-1.269043l.2958984-1.3486328c.0254822-.1237717.8659744-.2737579 2.0371094-1.1752968.0410156-.0317383.1035156-.0605469.1640625-.0419922l1.3583984.4365273c.7226563.2333984 1.5302734-.0678711 1.9150391-.713871l.8007813-1.3398438c.3955078-.6616211.2587891-1.5107422-.3242188-2.0195313l-1.0595703-.9257813c-.0380859-.0332031-.0332031-.0917969-.0292969-.1157227.1150169-.7294083.1178398-1.4488487.0039063-2.1904297-.0039063-.0219727-.0078125-.0756836.0263672-.1054688zm-2.0488281-.2080078c-.4169922.3618164-.6132813.9111328-.5263672 1.46875.0925522.6016045.0854721 1.1660767-.0039063 1.7265625-.0888672.5620117.1074219 1.1152344.5253906 1.4794922 1.0206451.9283104 1.1534729.9269867 1.0830078 1.0458984l-.8007813 1.3398438c-.03125.0522461-.1074219.0742188-.1699219.0551758l-1.3574219-.4360352c-.5195313-.1674805-1.0917969-.0610352-1.5380859.2807617-.4755859.3666992-.9980469.6601563-1.5517578.871582-.5322266.2041016-.9189453.6416054-1.0351563 1.170414l-.2958984 1.3481445c-.0117188.0522461-.0683594.0917969-.1328125.0917969l-1.5947266-.0053711c-.0644531 0-.1201172-.0390625-.1318359-.0913086l-.2871092-1.3540039c-.1123047-.5302734-.4970703-.9702187-1.0273438-1.1772499-1.5237274-.5939026-1.6102448-1.246582-2.5947266-1.246582-.4102135 0-.5581455.117672-1.8466816.5014648-.0644531.0195313-.1367188-.0039063-.1679688-.0566406-.748354-1.3314133-.8846035-1.361969-.7666016-1.4648438l1.0751953-.9262695c.4130859-.3554688.6103516-.8984375.5273438-1.4560547-.092268-.5986862-.0820255-1.1666412.0087891-1.7324219.0908203-.5615234-.1035156-1.1157227-.5195313-1.480957l-1.0556641-.9296875c-.1177444-.1026459.0249023-.1424751.7832031-1.4580078.03125-.0512695.1025391-.0742188.1689453-.0537109l1.3623047.4428711c.5156269.1660156 1.0849628.0644531 1.5273457-.2739258.4667969-.3574219.9775391-.6450195 1.5175781-.8540039.5322266-.2050781.9179688-.6435547 1.0332031-1.1743164l.2919922-1.3525391c.0107422-.0507813.0673828-.0893555.1318359-.0893555h1.59375c.0644531 0 .1220703.0390625.1328125.090332l.2910156 1.3530273c.1152344.5292969.5009766.9677734 1.0322266 1.1728516.5537109.2138672 1.0742188.5083008 1.5478516.8764648.4433594.3427734 1.0175781.449707 1.5371094.2861328l1.359375-.4311523c.0673828-.0209961.1376953.0039063.1679688.0551758.7396698 1.3026619.8917274 1.3600235.7724609 1.4628906z"/><path d="m37.2529259 54.1335945c-2.2353516 0-4.0546875 1.7763672-4.0546875 3.9599609s1.8193359 3.9599609 4.0546875 3.9599609 4.0537109-1.7763672 4.0537109-3.9599609-1.8183594-3.9599609-4.0537109-3.9599609zm0 6.4199219c-1.4082031 0-2.5546875-1.1035156-2.5546875-2.4599609s1.1464844-2.4599609 2.5546875-2.4599609 2.5537109 1.1035156 2.5537109 2.4599609-1.1455078 2.4599609-2.5537109 2.4599609z"/><path d="m29.362299 36.1853523c0 .4140625.3359375.75.75.75h16.4326191c2.8320313 0 5.1357422-2.3037109 5.1357422-5.1357403v-9.1000977c0-2.8320313-2.3037109-5.1357422-5.1357422-5.1357422h-18.5849629c-2.8320313 0-5.1357422 2.3037109-5.1357422 5.1357422v10.1962872c0 .4140625.3359375.75.75.75s.75-.3359375.75-.75v-10.1962871c0-2.0048828 1.6308594-3.6357422 3.6357422-3.6357422h18.5849628c2.0048828 0 3.6357422 1.6308594 3.6357422 3.6357422v9.1000977c0 2.0048809-1.6308594 3.6357403-3.6357422 3.6357403h-16.432619c-.4140625-.0000001-.75.3359374-.75.7499999z"/><path d="m31.0839787 27.4495144c1.5537128 0 2.8183613-1.2641602 2.8183613-2.8178711 0-1.5541992-1.2646484-2.8183594-2.8183613-2.8183594-1.5537109 0-2.8173828 1.2641602-2.8173828 2.8183594-.0000001 1.5537109 1.2636718 2.8178711 2.8173828 2.8178711zm0-4.1362305c.7265625 0 1.3183613.5913086 1.3183613 1.3183594 0 .7265625-.5917988 1.3178711-1.3183613 1.3178711s-1.3173828-.5913086-1.3173828-1.3178711c-.0000001-.7270508.5908203-1.3183594 1.3173828-1.3183594z"/><path d="m45.3945274 24.6316433c0-1.5541992-1.2646484-2.8183594-2.8183594-2.8183594s-2.8173828 1.2641602-2.8173828 2.8183594c0 1.5537109 1.2636719 2.8178711 2.8173828 2.8178711s2.8183594-1.2641602 2.8183594-2.8178711zm-4.1357422 0c0-.7270508.5908203-1.3183594 1.3173828-1.3183594s1.3183594.5913086 1.3183594 1.3183594c0 .7265625-.5917969 1.3178711-1.3183594 1.3178711s-1.3173828-.5913086-1.3173828-1.3178711z"/><path d="m32.4794884 30.8503933c-.3994141.0625-.6660175.4282227-.6171894.8291016.046875.4018536.4209003.6962872.8193378.6567364.4306641-.0361328 5.8867188-.015625 9.2246094.0053711h.0048828c.4121094 0 .7470703-.3325195.75-.7451153.0029297-.4140625-.3310547-.7524414-.7451172-.7548828-3.3662109-.0214844-9.0664062-.0488282-9.4365234.008789z"/><path d="m58.5820274 67.6687546 1.0341797-18.8828163c.085907-1.5750122-1.3022499-2.8496094-2.9941406-2.8496094h-38.2441425c-1.7014809 0-3.0796251 1.283493-2.9941406 2.8496094l1.0341797 18.8828163c.0800781 1.4467773 1.3945313 2.5795898 2.9941406 2.5795898h36.1757813c1.6005877 0 2.9160174-1.1333008 2.9941424-2.5795898zm-40.6660175-.0820313-1.0341797-18.8828163c-.0396976-.7354012.71134-1.2675781 1.4960938-1.2675781h38.2441406c.7808151 0 1.5375557.5350609 1.4960938 1.2675781l-1.0341797 18.8833046c-.0341797.6401367-.7060547 1.1611328-1.4960938 1.1611328h-36.1757812c-.7900391 0-1.4609375-.5209961-1.4960938-1.1616211z"/><path d="m25.1328068 44.8992195c.2874699.2979431.7618771.3071785 1.0605469.0195313 6.3098927-6.0807152 16.2969761-6.0858154 22.6132832-.0019531.2978516.2875977.7724609.2797852 1.0605469-.0195313.2871094-.2983398.2783203-.7734375-.0195313-1.0605469-6.8916092-6.6381912-17.7981148-6.6446571-24.6953144.0019531-.2978516.2875977-.3066407.7622071-.0195313 1.0605469z"/><path d="m15.6650333 30.5862331c0 1.1549072.7780151 2.121397 1.8339844 2.4313335v1.3547974c0 .2802734.15625.5371094.4052734.6660156l4.6716919 2.4168091c.0512085 1.6082764 1.3674927 2.9030151 2.9884644 2.9030151 1.6523438 0 2.9970703-1.3447266 2.9970703-2.9975586s-1.3447266-2.9975586-2.9970703-2.9975586c-1.1412964 0-2.1235962.6481934-2.6299438 1.5888062l-3.9354858-2.0360718v-.784668h1.5097656c.4140625 0 .75-.3359375.75-.75v-7.6220684c0-.4140625-.3359375-.75-.75-.75h-.7490234v-4.0361328c0-.0874023.0322266-.1704102.0898438-.2338867l2.7098389-2.9657593c.3143311.100647.6395874.1615601.9747314.1615601 1.1035156 0 2.1191406-.565918 2.5878906-1.4423828 4.0347538-7.5446534 17.4970951-7.6466293 21.6376972-.0732422.630188 1.1519775 2.1125488 1.6785889 3.4699707 1.28479l2.7731934 3.0350342c.0576172.0634766.0898438.1464844.0898438.2338867v4.0361328h-.7490234c-.4140625 0-.75.3359375-.75.75v7.6220684c0 .4140625.3359375.75.75.75h2.2988281c1.4033203 0 2.5449219-1.1415997 2.5449219-2.54492v-4.0322266c0-1.4033203-1.1416016-2.5449219-2.5449219-2.5449219h-.0498047v-4.0361328c0-.4624023-.1708984-.9047852-.4824219-1.2456055l-2.5695801-2.8122559c.7541618-.8100109.8355217-1.8444004.373291-2.6901855-6.1923714-11.3230724-25.856699-11.309515-31.9658222.1123047-.4229813.790307-.3962688 1.7786627.333374 2.6108398l-2.5394287 2.7792969c-.3115234.3408203-.4824219.7832031-.4824219 1.2456055v4.0361328h-.0498047c-1.4033203 0-2.5449219 1.1416016-2.5449219 2.5449219v4.0322267zm9.8994141 5.2768536c.8251953 0 1.4970703.671875 1.4970703 1.4975586s-.671875 1.4975586-1.4970703 1.4975586c-.8261719 0-1.4980469-.671875-1.4980469-1.4975586s.671875-1.4975586 1.4980469-1.4975586zm31.1230488-9.3090801v4.0322266c0 .5761719-.46875 1.0449219-1.0449219 1.0449219h-1.5488281v-6.1220703h1.5488281c.5761719-.0000001 1.0449219.4687499 1.0449219 1.0449218zm-34.4169941-12.5092774c5.5319824-10.3402917 23.6880779-10.4129343 29.3271503-.1000976.2876472.5265207-.0753059 1.0648966-.6503906 1.2856445-.7050781.2724609-1.5644531.0297852-1.8710938-.5307617-4.7124824-8.6158357-19.678337-8.5137544-24.276369.0854492-.2871094.5356445-1.1728516.8032227-1.8652344.5419922-.5763035-.2167225-.946806-.7530222-.6640625-1.2822266zm-5.1054688 12.5092774c0-.5761719.46875-1.0449219 1.0449219-1.0449219h1.5488281v6.1220703h-1.5488281c-.5761719 0-1.0449219-.46875-1.0449219-1.0449219z"/></g></svg>