<svg viewBox="1 1 511.99998 511.99998" xmlns="http://www.w3.org/2000/svg"><path d="m190.753906 47.152344h153.40625v-15.09375h-159.066406l-12.023438-32.058594h-173.070312v383.765625h296.074219v-15.09375h-280.980469v-353.578125h147.515625l18.382813 49.023438h-69.253907v15.09375h192.351563v-15.09375h-106.976563zm0 0"/><path d="m79.679688 64.117188h16.027343v15.09375h-16.027343zm0 0"/><path d="m47.621094 64.117188h16.027344v15.09375h-16.027344zm0 0"/><path d="m424.308594 224.410156v15.09375h72.597656v24.976563h-161.226562v-24.976563h64.582031v-15.09375h-79.675781v287.589844h103.722656v-15.09375h-88.628906v-24.980469h161.226562v24.980469h-48.554688v15.09375h63.648438v-287.589844zm-88.628906 232.421875v-177.257812h161.226562v177.257812zm0 0"/><path d="m408.277344 55.167969c44.449218 0 80.613281 36.164062 80.613281 80.613281h15.09375c0-52.773438-42.933594-95.707031-95.707031-95.707031-52.773438 0-95.707032 42.933593-95.707032 95.707031h15.09375c0-44.449219 36.164063-80.613281 80.613282-80.613281zm0 0"/><path d="m455.898438 135.78125c0-26.257812-21.363282-47.621094-47.621094-47.621094-26.257813 0-47.617188 21.363282-47.617188 47.621094h15.09375c0-17.933594 14.589844-32.527344 32.523438-32.527344s32.527344 14.59375 32.527344 32.527344zm0 0"/><path d="m408.277344 136.25c-13 0-23.574219 10.574219-23.574219 23.574219s10.574219 23.578125 23.574219 23.578125 23.578125-10.578125 23.578125-23.578125-10.578125-23.574219-23.578125-23.574219zm0 32.058594c-4.675782 0-8.480469-3.804688-8.480469-8.484375 0-4.675781 3.804687-8.484375 8.480469-8.484375 4.679687 0 8.484375 3.808594 8.484375 8.484375 0 4.679687-3.804688 8.484375-8.484375 8.484375zm0 0"/><path d="m266.691406 202.574219-11.160156 11.160156v-45.894531c0-9.476563-6.277344-23.578125-23.574219-23.578125h-112.203125v15.09375h112.203125c7.203125 0 8.40625 5.367187 8.480469 8.484375v45.894531l-11.160156-11.160156-10.671875 10.675781 29.382812 29.378906 29.378907-29.378906zm0 0"/><path d="m111.738281 295.605469h112.203125v-15.09375h-112.203125c-7.207031 0-8.40625-5.367188-8.480469-8.484375v-45.894532l11.15625 11.160157 10.675782-10.671875-29.382813-29.382813-29.378906 29.382813 10.671875 10.671875 11.160156-11.160157v45.894532c0 9.480468 6.28125 23.578125 23.578125 23.578125zm0 0"/><path d="m87.695312 144.261719h16.027344v15.097656h-16.027344zm0 0"/><path d="m55.636719 144.261719h16.027343v15.097656h-16.027343zm0 0"/><path d="m239.972656 280.511719h16.027344v15.09375h-16.027344zm0 0"/><path d="m272.03125 280.511719h16.027344v15.09375h-16.027344zm0 0"/><path d="m408.277344 360.65625h16.03125v15.09375h-16.03125zm0 0"/><path d="m440.335938 360.65625h16.03125v15.09375h-16.03125zm0 0"/><path d="m376.21875 360.65625h16.03125v15.09375h-16.03125zm0 0"/></svg>