<svg id="Layer_1" enable-background="new 0 0 500 500" viewBox="0 0 500 500" xmlns="http://www.w3.org/2000/svg"><path clip-rule="evenodd" d="m337.863 198.586c-3.019-1.877-3.929-5.815-2.138-8.711l4.917-8.124c3.306-5.454 11.758-3.111 11.758 3.26 0 1.122-.267 2.298-.909 3.314l-4.917 8.123c-1.787 2.941-5.609 3.934-8.711 2.138zm-86.153-157.769h-3.367l-118.22 32.494c-2.779.748-4.65 3.26-4.65 6.093v76.586c0 2.886 1.871 5.398 4.65 6.146l118.22 32.441c1.272.365 2.098.347 3.367 0l118.166-32.441c2.779-.748 4.703-3.26 4.703-6.146v-76.585c0-2.833-1.924-5.345-4.703-6.093zm87.329 214.046 4.65-8.124c1.764-2.993 5.665-4.062 8.658-2.298 3.046 1.764 4.115 5.612 2.351 8.658l-4.703 8.124c-1.754 3.03-5.642 4.045-8.658 2.298-3.046-1.763-4.062-5.611-2.298-8.658zm-27.257-10.421c3.046 1.764 4.062 5.612 2.298 8.658l-4.65 8.124c-1.749 3.037-5.715 4.049-8.658 2.298-3.046-1.764-4.115-5.612-2.352-8.658l4.703-8.124c1.765-2.993 5.613-4.062 8.659-2.298zm10.849-12.506c-4.715 0-7.963-5.15-5.451-9.513l4.65-8.123c1.764-3.046 5.665-4.062 8.711-2.298 2.993 1.71 4.062 5.612 2.298 8.658l-4.703 8.124c-1.176 2.029-3.313 3.152-5.505 3.152zm-29.608 44.947c3.046 1.764 4.115 5.612 2.351 8.658l-4.703 8.123c-1.749 3.02-5.592 4.046-8.658 2.298-3.046-1.71-4.062-5.612-2.298-8.658l4.65-8.07c1.764-3.046 5.665-4.115 8.658-2.351zm27.257 10.421 4.703-8.07c1.71-3.046 5.612-4.115 8.658-2.352 3.046 1.764 4.062 5.612 2.298 8.658l-4.65 8.123c-1.743 3.029-5.67 4.049-8.658 2.298-3.046-1.709-4.115-5.61-2.351-8.657zm56.224-97.322 4.65-8.124c1.764-3.046 5.665-4.062 8.711-2.298 2.993 1.71 4.062 5.612 2.298 8.658l-4.703 8.07c-1.791 3.123-5.655 4.09-8.658 2.352-3.047-1.764-4.062-5.612-2.298-8.658zm-5.398 22.019c3.046 1.71 4.062 5.612 2.298 8.658l-4.65 8.124c-1.749 3.038-5.715 4.049-8.658 2.298-3.046-1.764-4.115-5.612-2.352-8.658l4.703-8.123c1.764-3.047 5.612-4.063 8.659-2.299zm-174.23 34.739 4.703 8.124c2.427 4.193-.582 9.513-5.505 9.513-2.191 0-4.329-1.122-5.451-3.153l-4.703-8.124c-1.764-3.046-.695-6.894 2.298-8.658 3.046-1.764 6.948-.695 8.658 2.298zm-40.565 0 4.703 8.124c2.426 4.256-.716 9.513-5.505 9.513-2.191 0-4.329-1.122-5.505-3.153l-4.703-8.124c-1.71-3.046-.695-6.894 2.351-8.658 2.994-1.764 6.896-.695 8.659 2.298zm7.75 38.801c-1.764-3.046-.695-6.894 2.298-8.658 3.046-1.764 6.948-.695 8.711 2.352l4.65 8.07c2.434 4.214-.575 9.513-5.505 9.513-2.138 0-4.329-1.122-5.451-3.153zm51.574-6.307 4.703 8.07c2.415 4.221-.655 9.513-5.505 9.513-2.191 0-4.329-1.122-5.505-3.153l-4.65-8.123c-1.764-3.046-.748-6.894 2.298-8.658 3.047-1.764 6.895-.695 8.659 2.351zm-78.083-64.935 4.703 8.123c2.436 4.208-.602 9.513-5.505 9.513-2.191 0-4.329-1.122-5.451-3.153l-4.703-8.124c-1.764-3.046-.695-6.894 2.298-8.658 3.047-1.763 6.948-.747 8.658 2.299zm-29.715-26.081c-1.764-3.046-.695-6.948 2.352-8.658 2.993-1.764 6.894-.748 8.658 2.298l4.65 8.124c2.512 4.363-.736 9.513-5.451 9.513-2.191 0-4.329-1.122-5.505-3.207zm72.685 42.863c-3.016 1.747-6.903.732-8.658-2.298l-4.703-8.124c-1.71-3.046-.695-6.948 2.352-8.658 3.046-1.764 6.894-.748 8.658 2.298l4.703 8.123c1.71 3.047.694 6.895-2.352 8.659zm-18.385-32.495c-3.105 1.797-6.886.797-8.711-2.138l-4.917-8.123c-1.758-2.843-.95-6.856 2.138-8.711 2.993-1.817 6.894-.855 8.711 2.138l4.917 8.124c1.791 2.895.882 6.833-2.138 8.71zm94.223 16.942c0 3.527-2.833 6.36-6.36 6.36-3.474 0-6.36-2.833-6.36-6.36v-9.353c0-3.474 2.886-6.36 6.36-6.36 3.527 0 6.36 2.886 6.36 6.36zm0 37.518c0 3.474-2.833 6.306-6.36 6.306-3.474 0-6.36-2.833-6.36-6.306v-9.406c0-3.474 2.886-6.307 6.36-6.307 3.527 0 6.36 2.833 6.36 6.307zm0 28.059v9.406c0 3.474-2.833 6.307-6.36 6.307-3.474 0-6.36-2.833-6.36-6.307v-9.406c0-3.474 2.886-6.306 6.36-6.306 3.527-.001 6.36 2.832 6.36 6.306zm117.685 78.403c0 3.474-2.833 6.36-6.306 6.36h-174.55c-3.527 0-6.36-2.886-6.36-6.36 0-3.527 2.833-6.36 6.36-6.36h174.55c3.473 0 6.306 2.833 6.306 6.36zm-225.537 9.887c-5.451 0-9.887-4.436-9.887-9.887s4.436-9.887 9.887-9.887c5.452 0 9.887 4.436 9.887 9.887.001 5.452-4.435 9.887-9.887 9.887zm0-32.494c-12.453 0-22.553 10.154-22.553 22.607s10.101 22.554 22.553 22.554c12.453 0 22.607-10.101 22.607-22.554.001-12.453-10.154-22.607-22.607-22.607zm245.365 72.097v-70.387c0-5.131-4.169-9.299-9.353-9.299h-269.04c-5.131 0-9.299 4.169-9.299 9.299v70.387c0 3.1 1.069 5.665 3.314 7.75l28.325 26.829c2.084 2.031 4.436 2.94 7.322 2.94h71.188c3.848 0 7.001-1.71 9.032-5.024l19.294-30.57c2.442-3.967 8.304-3.878 10.742 0l19.24 30.57c2.084 3.314 5.184 5.024 9.085 5.024h71.135c2.886 0 5.238-.909 7.322-2.94l28.326-26.829c2.245-2.085 3.367-4.65 3.367-7.75zm-9.353-92.353h-269.04c-12.132 0-22.019 9.834-22.019 21.966v70.387c0 6.574 2.565 12.453 7.322 16.996l28.272 26.776c4.543 4.276 9.941 6.413 16.087 6.413h71.188c8.177 0 15.392-3.955 19.774-10.903l13.896-22.073 13.896 22.073c4.382 6.948 11.597 10.903 19.828 10.903h71.135c6.146 0 11.597-2.138 16.087-6.413l28.272-26.776c4.81-4.543 7.322-10.422 7.322-16.996v-70.387c-.001-12.132-9.888-21.966-22.02-21.966zm-246.38-228.903 105.5 28.967v63.439l-105.5-28.967zm111.86-34.205 94.276 25.867-94.276 25.921-94.276-25.921zm111.86 97.644v-63.439l-105.5 28.967v63.439z" fill-rule="evenodd"/></svg>