<svg id="Layer_1" enable-background="new 0 0 480.094 480.094" height="512" viewBox="0 0 480.094 480.094" width="512" xmlns="http://www.w3.org/2000/svg"><path d="m480 211.674c0 32.387 1.157 41.811-4.651 57.605-1.19 3.236-4.251 5.241-7.509 5.241-5.544 0-9.431-5.533-7.507-10.763 4.614-12.546 3.667-18.814 3.667-52.083 0-29.613-21.57-54.268-49.82-59.118 20.551 35.583 24.372 76.648 14.972 112.498-1.12 4.273-5.491 6.83-9.767 5.71-4.274-1.121-6.83-5.494-5.709-9.768 22.228-84.793-41.721-166.949-128.265-166.949h-90.82c-73.11 0-132.59 59.479-132.59 132.59 0 69.989 54.97 127.836 124 132.305v-31.895c0-19.299 15.701-35 35-35h69.273c2.12-9.164 1.481-18.597-2.585-27.753-2.197-4.947 1.061-10.606 6.436-11.199 27.668-3.045 52.532 11.49 62.281 38.952h80.594c19.299 0 35 15.701 35 35v88c0 19.299-15.701 35-35 35h-216c-19.299 0-35-15.701-35-35 0-4.418 3.582-8 8-8s8 3.582 8 8c0 10.477 8.523 19 19 19h216c10.477 0 19-8.523 19-19v-88c0-10.477-8.523-19-19-19h-86.52c-3.661 0-6.855-2.485-7.754-6.034-4.503-17.76-17.49-31.125-36.707-33.061 2.556 11.291 1.657 22.728-2.204 33.742-1.124 3.207-4.151 5.353-7.549 5.353h-75.266c-10.477 0-19 8.523-19 19v40.179c0 4.309-3.462 8-8.053 8-113.902-.748-185.115-123.995-128.127-222.67-28.25 4.851-49.82 29.505-49.82 59.118v31.373c0 17.344 7.504 33.834 20.589 45.243 3.33 2.903 3.676 7.957.772 11.287-2.902 3.329-7.956 3.677-11.287.772-16.57-14.448-26.074-35.334-26.074-57.302v-31.373c0-21.473 8.966-40.88 23.333-54.715v-118.912c0-4.418 3.582-8 8-8s8 3.582 8 8v107.084c12.255-6.78 24.603-9.457 37.847-9.457 27.207-35.037 69.717-57.627 117.409-57.627h90.82c47.692 0 90.202 22.591 117.409 57.627 13.191 0 25.55 2.654 37.847 9.457v-107.084c0-4.418 3.582-8 8-8s8 3.582 8 8v118.913c14.369 13.834 23.335 33.241 23.335 54.714zm-293.657-25.284-16 16c-3.125 3.124-3.125 8.189 0 11.313 3.124 3.124 8.189 3.124 11.313 0l10.344-10.343c10.744 10.744 11.712 12.687 16 12.687 7.062 0 10.712-8.602 5.657-13.657l-16-16c-3.124-3.124-8.19-3.124-11.314 0zm96 0-16 16c-3.125 3.124-3.125 8.189 0 11.313 3.124 3.124 8.189 3.124 11.313 0l10.344-10.343c10.744 10.744 11.712 12.687 16 12.687 7.062 0 10.712-8.602 5.657-13.657l-16-16c-3.124-3.124-8.19-3.124-11.314 0zm87.15 77.565c4.176 1.442 8.731-.776 10.172-4.953 21.96-63.636-25.619-129.867-92.577-129.867h-94.177c-53.989 0-97.912 43.923-97.912 97.912 0 39.438 23.472 74.85 59.798 90.214 9.835 4.16 15.887-10.653 6.232-14.736-30.391-12.855-50.029-42.482-50.029-75.478 0-45.166 36.746-81.912 81.912-81.912h94.177c56.063 0 95.807 55.463 77.452 108.647-1.442 4.177.775 8.731 4.952 10.173zm-87.493 113.092c4.418 0 8-3.582 8-8s-3.582-8-8-8h-5c-4.418 0-8 3.582-8 8s3.582 8 8 8zm50 0c4.418 0 8-3.582 8-8s-3.582-8-8-8h-5c-4.418 0-8 3.582-8 8s3.582 8 8 8zm50 0c4.418 0 8-3.582 8-8s-3.582-8-8-8h-5c-4.418 0-8 3.582-8 8s3.582 8 8 8z"/></svg>